<svg width="601" height="197" viewBox="0 0 601 197" fill="none" xmlns="http://www.w3.org/2000/svg">
<path d="M355.249 97.5205C355.655 97.5205 356.038 97.4683 356.4 97.3638C356.761 97.261 357.081 97.1095 357.353 96.9058C357.625 96.7056 357.839 96.4566 357.999 96.1623C358.159 95.868 358.237 95.5285 358.237 95.1454C358.237 94.6474 358.168 94.226 358.03 93.8812C357.893 93.5347 357.694 93.2526 357.433 93.0332C357.17 92.8155 356.857 92.6623 356.489 92.5665C356.124 92.4742 355.709 92.4272 355.251 92.4272H354.755V97.5187H355.251L355.249 97.5205ZM352.674 96.4809V89.1083L351.716 87.4941H359.742V90.7538H359.549L357.792 88.0514H354.751V91.8247H355.232C355.605 91.8247 355.995 91.8334 356.399 91.8491C356.804 91.863 357.207 91.9031 357.605 91.964C358.008 92.0267 358.382 92.1225 358.742 92.2513C359.098 92.3819 359.416 92.5613 359.693 92.7946C359.97 93.0262 360.189 93.3205 360.348 93.6705C360.508 94.024 360.588 94.4541 360.588 94.9608C360.588 95.5581 360.416 96.0613 360.071 96.4635C359.721 96.8675 359.287 97.1931 358.76 97.4439C358.231 97.6911 357.652 97.867 357.024 97.9715C356.395 98.0742 355.796 98.1265 355.232 98.1265H351.715L352.672 96.4827L352.674 96.4809Z" fill="#363636"/>
<path d="M365.034 95.9063L365.178 95.7966L366.76 96.4792C366.908 96.0247 367.028 95.5128 367.12 94.9416C367.211 94.3722 367.28 93.768 367.327 93.1272C367.374 92.4864 367.407 91.8178 367.421 91.1247C367.439 90.4334 367.447 89.7439 367.447 89.0596L366.169 87.4941H375.106L373.921 89.1397V96.4809L375.106 98.1265H370.406L371.844 96.4809V88.1924H368.231C368.231 89.1658 368.226 90.1008 368.224 91.0011C368.217 91.8996 368.191 92.7354 368.146 93.4999C368.095 94.266 368.018 94.9486 367.912 95.5476C367.806 96.1483 367.656 96.6464 367.465 97.0382C367.218 97.5344 366.908 97.8722 366.53 98.0481C366.15 98.224 365.739 98.311 365.292 98.311L365.036 95.9063H365.034Z" fill="#363636"/>
<path d="M382.838 94.1062H386.42L384.599 89.854L382.84 94.1062H382.838ZM387.684 97.056L386.709 94.8045H382.554L381.691 96.9167L383.209 98.1286H379.676L380.811 96.9027L384.874 87.3413H385.622L389.939 97.0891L391.139 98.1303H386.214L387.686 97.0595L387.684 97.056Z" fill="#363636"/>
<path d="M396.887 96.4834V89.1108L395.929 87.4966H403.554V90.8956L403.424 90.9095L401.379 88.0538H398.966V96.4834L400.406 98.1272H395.704L396.887 96.4834Z" fill="#363636"/>
<path d="M413.017 87.9609C412.472 87.9609 412.037 88.0827 411.706 88.3265C411.375 88.5668 411.118 88.8663 410.938 89.2181C410.759 89.5698 410.635 89.9407 410.573 90.336C410.506 90.7295 410.477 91.0812 410.477 91.3929C410.477 92.1887 410.555 92.9653 410.717 93.721C410.875 94.475 411.111 95.1454 411.419 95.7305C411.727 96.3138 412.107 96.784 412.554 97.1357C413.002 97.4875 413.508 97.6633 414.072 97.6633C414.553 97.6633 414.959 97.5432 415.288 97.2977C415.617 97.0539 415.882 96.7544 416.078 96.3991C416.277 96.0387 416.418 95.6661 416.51 95.2725C416.601 94.8807 416.648 94.529 416.648 94.2191C416.648 93.4215 416.564 92.6449 416.401 91.8892C416.235 91.1352 415.997 90.4666 415.687 89.8867C415.378 89.3086 414.995 88.8437 414.544 88.4902C414.092 88.1385 413.583 87.9626 413.019 87.9626L413.017 87.9609ZM418.882 92.3367C418.882 93.1133 418.755 93.8656 418.501 94.5899C418.243 95.3126 417.867 95.9482 417.372 96.4967C416.876 97.0452 416.26 97.4857 415.52 97.8166C414.778 98.1457 413.916 98.3128 412.937 98.3128C412.201 98.3128 411.541 98.1683 410.954 97.8792C410.369 97.5902 409.873 97.2088 409.467 96.7387C409.061 96.2668 408.751 95.7288 408.532 95.1245C408.314 94.5186 408.204 93.9004 408.204 93.2683C408.204 92.4917 408.333 91.7447 408.587 91.0186C408.843 90.2942 409.221 89.6569 409.714 89.1101C410.21 88.5633 410.83 88.1228 411.577 87.792C412.322 87.4594 413.184 87.2939 414.153 87.2939C414.889 87.2939 415.549 87.4402 416.134 87.7275C416.721 88.0183 417.217 88.3997 417.623 88.8698C418.027 89.3417 418.34 89.878 418.558 90.484C418.776 91.0882 418.884 91.7081 418.884 92.3385L418.882 92.3367Z" fill="#363636"/>
<path d="M423.466 87.4941H433.106V90.8931L432.979 90.9088L430.917 88.0374H429.32V96.4809L430.501 98.1247H426.057L427.24 96.4809V88.0514H425.639L423.595 90.9088L423.466 90.8931V87.4941Z" fill="#363636"/>
<path d="M441.49 97.5229C441.896 97.5229 442.279 97.4742 442.639 97.3749C443.001 97.2757 443.32 97.1311 443.593 96.9413C443.863 96.7498 444.079 96.5112 444.239 96.2274C444.398 95.9418 444.478 95.6145 444.478 95.2418C444.478 94.7264 444.393 94.2998 444.224 93.9707C444.053 93.6381 443.813 93.3734 443.503 93.1784C443.195 92.9816 442.827 92.8458 442.397 92.7675C441.974 92.6891 441.504 92.6491 440.992 92.6491V97.5247H441.488L441.49 97.5229ZM440.994 92.2608C441.507 92.2608 441.955 92.2068 442.336 92.0988C442.721 91.9891 443.042 91.8411 443.296 91.6548C443.552 91.4685 443.743 91.2473 443.872 90.9896C444.001 90.7302 444.064 90.4515 444.064 90.152C444.064 89.6836 443.985 89.311 443.823 89.0254C443.665 88.7399 443.461 88.5257 443.216 88.3742C442.97 88.2244 442.7 88.1252 442.399 88.0712C442.103 88.019 441.814 87.9929 441.537 87.9929H440.994V92.2608ZM441.619 87.4966C442.288 87.4966 442.9 87.5331 443.458 87.6045C444.011 87.6777 444.485 87.803 444.879 87.9754C445.272 88.153 445.58 88.3916 445.798 88.6911C446.017 88.9923 446.125 89.3737 446.125 89.8386C446.125 90.1886 446.047 90.4986 445.892 90.7615C445.739 91.0262 445.544 91.2578 445.302 91.4598C445.063 91.6617 444.793 91.8324 444.494 91.9734C444.198 92.1127 443.896 92.2399 443.6 92.3548C444.603 92.5707 445.392 92.9137 445.965 93.3874C446.541 93.8575 446.829 94.4913 446.829 95.2871C446.829 95.8461 446.656 96.3093 446.31 96.6767C445.963 97.0458 445.526 97.3331 445 97.5456C444.471 97.758 443.893 97.9078 443.266 97.9966C442.637 98.0836 442.039 98.1289 441.474 98.1289H437.957L438.913 96.4851V89.1125L437.957 87.4983H441.619V87.4966Z" fill="#363636"/>
<path d="M456.346 87.9609C455.802 87.9609 455.365 88.0827 455.036 88.3265C454.704 88.5668 454.448 88.8663 454.268 89.2181C454.089 89.5698 453.965 89.9407 453.899 90.336C453.835 90.7295 453.805 91.0812 453.805 91.3929C453.805 92.1887 453.883 92.9653 454.044 93.721C454.204 94.475 454.439 95.1454 454.747 95.7305C455.055 96.3138 455.435 96.784 455.882 97.1357C456.33 97.4875 456.837 97.6633 457.401 97.6633C457.881 97.6633 458.287 97.5432 458.616 97.2977C458.945 97.0539 459.21 96.7544 459.407 96.3991C459.605 96.0387 459.746 95.6661 459.839 95.2725C459.929 94.8807 459.974 94.529 459.974 94.2191C459.974 93.4215 459.889 92.6449 459.725 91.8892C459.56 91.1352 459.323 90.4666 459.013 89.8867C458.705 89.3086 458.322 88.8437 457.871 88.4902C457.418 88.1385 456.91 87.9626 456.344 87.9626L456.346 87.9609ZM462.212 92.3367C462.212 93.1133 462.083 93.8656 461.829 94.5899C461.573 95.3126 461.197 95.9482 460.702 96.4967C460.206 97.0452 459.59 97.4857 458.848 97.8166C458.108 98.1457 457.246 98.3128 456.267 98.3128C455.531 98.3128 454.871 98.1683 454.284 97.8792C453.699 97.5902 453.203 97.2088 452.797 96.7387C452.391 96.2668 452.081 95.7288 451.862 95.1245C451.644 94.5186 451.534 93.9004 451.534 93.2683C451.534 92.4917 451.663 91.7447 451.917 91.0186C452.173 90.2942 452.551 89.6569 453.044 89.1101C453.54 88.5633 454.16 88.1228 454.906 87.792C455.651 87.4594 456.511 87.2939 457.479 87.2939C458.217 87.2939 458.876 87.4402 459.462 87.7275C460.049 88.0183 460.546 88.3997 460.95 88.8698C461.355 89.3417 461.669 89.878 461.883 90.484C462.102 91.0882 462.21 91.7081 462.21 92.3385L462.212 92.3367Z" fill="#363636"/>
<path d="M469.912 93.0984C470.786 93.0984 471.462 92.8894 471.944 92.4698C472.423 92.0501 472.663 91.4006 472.663 90.5213C472.663 89.6437 472.423 88.9959 471.936 88.5815C471.448 88.167 470.774 87.9616 469.912 87.9616V93.1001V93.0984ZM467.833 96.4817V89.1387L466.651 87.4932H470.487C470.746 87.4932 471.032 87.5019 471.352 87.5245C471.673 87.5454 471.997 87.5907 472.327 87.6568C472.656 87.7248 472.98 87.8205 473.296 87.9442C473.611 88.0678 473.888 88.2367 474.126 88.4491C474.366 88.6616 474.56 88.921 474.708 89.2327C474.859 89.5427 474.932 89.9118 474.932 90.335C474.932 90.8103 474.828 91.2369 474.614 91.6078C474.398 91.9805 474.126 92.2974 473.79 92.5621C473.454 92.8267 473.074 93.0374 472.644 93.1994C472.221 93.3596 471.798 93.4658 471.384 93.5163C471.126 93.5598 470.865 93.5877 470.593 93.6016C470.321 93.619 470.093 93.6277 469.912 93.6277V96.4834L471.352 98.1272H466.651L467.833 96.4834V96.4817Z" fill="#363636"/>
<path d="M480.261 96.4834V89.1264L479.092 87.4966H483.538L482.34 89.1421V96.2657L487.503 87.4966H490.543L489.343 89.1421V96.4834L490.526 98.1272H486.08L487.264 96.4834V89.358L482.101 98.1272H479.08L480.261 96.4834Z" fill="#363636"/>
<path d="M495.228 87.4941H504.869V90.8931L504.742 90.9088L502.68 88.0374H501.082V96.4809L502.262 98.1247H497.82L499.004 96.4809V88.0514H497.404L495.356 90.9088L495.228 90.8931V87.4941Z" fill="#363636"/>
<path d="M517.735 98.1289H509.725L510.683 96.4851V89.1108L509.725 87.4966H517.432V90.7563H517.239L515.48 88.0538H512.762V92.3548H517.125V93.053H512.762V97.5699H515.624L517.735 94.7282L517.909 94.7595L517.735 98.1289Z" fill="#363636"/>
<path d="M522.41 95.9088L522.555 95.7991L524.136 96.4816C524.286 96.0272 524.404 95.5152 524.498 94.9441C524.589 94.3747 524.656 93.7705 524.705 93.1297C524.754 92.4889 524.784 91.8202 524.799 91.1272C524.815 90.4359 524.824 89.7463 524.824 89.062L523.545 87.4966H532.484L531.298 89.1421V96.4834L532.484 98.1289H527.782L529.22 96.4834V88.1948H525.607C525.607 89.1682 525.604 90.1033 525.6 91.0035C525.593 91.902 525.567 92.7379 525.522 93.5023C525.47 94.2685 525.393 94.951 525.289 95.55C525.181 96.1508 525.031 96.6488 524.841 97.0406C524.594 97.5369 524.282 97.8747 523.904 98.0505C523.525 98.2264 523.114 98.3135 522.666 98.3135L522.41 95.9088Z" fill="#363636"/>
<path d="M541.009 97.5213C541.415 97.5213 541.798 97.4655 542.162 97.3506C542.522 97.2374 542.843 97.0737 543.113 96.8613C543.386 96.6471 543.6 96.3859 543.759 96.0777C543.92 95.766 543.999 95.4143 543.999 95.0208C543.999 94.5245 543.924 94.1048 543.778 93.7635C543.628 93.4223 543.421 93.1471 543.154 92.933C542.888 92.7205 542.571 92.569 542.2 92.4767C541.834 92.3845 541.437 92.3374 541.011 92.3374H540.515V97.5213H541.011H541.009ZM538.435 96.4817V89.1248L537.271 87.4932H541.713L540.515 89.1387V91.7315H540.993C541.335 91.7315 541.706 91.7437 542.104 91.7698C542.507 91.7942 542.902 91.8516 543.295 91.9387C543.689 92.0292 544.068 92.1459 544.439 92.2974C544.809 92.4489 545.131 92.6491 545.415 92.9016C545.698 93.1558 545.925 93.4641 546.095 93.8262C546.266 94.1884 546.35 94.6168 546.35 95.1148C546.35 95.726 546.177 96.224 545.831 96.6123C545.486 96.9989 545.047 97.3088 544.521 97.5334C543.992 97.7616 543.416 97.9165 542.785 98.0001C542.157 98.0837 541.559 98.1237 540.993 98.1237H537.478L538.435 96.48V96.4817Z" fill="#363636"/>
<path d="M561.708 98.1265H557.264L558.448 96.4827V92.9566H553.633V96.4827L554.817 98.1265H550.374L551.558 96.4827V89.1257L550.389 87.4941H554.835L553.633 89.1397V92.2601H558.448V89.1257L557.278 87.4941H561.725L560.527 89.1397V96.4827L561.708 98.1265Z" fill="#363636"/>
<path d="M576.253 98.1289L577.435 96.4851V89.1421L576.253 87.4966H580.699L579.511 89.1421V96.4851L580.699 98.1289H576.253ZM570.242 97.5247C570.648 97.5247 571.031 97.469 571.395 97.354C571.757 97.2408 572.074 97.0772 572.344 96.8647C572.617 96.6505 572.833 96.3894 572.992 96.0811C573.152 95.7695 573.232 95.4177 573.232 95.0242C573.232 94.5279 573.157 94.1083 573.009 93.767C572.861 93.4257 572.654 93.1506 572.386 92.9364C572.119 92.7239 571.801 92.5724 571.431 92.4802C571.066 92.3879 570.669 92.3408 570.242 92.3408H569.746V97.5247H570.242ZM567.669 96.4851V89.1282L566.504 87.4966H570.947L569.748 89.1421V91.7349H570.227C570.57 91.7349 570.937 91.7471 571.337 91.7732C571.738 91.7976 572.135 91.855 572.529 91.9421C572.922 92.0326 573.303 92.1493 573.673 92.3008C574.04 92.4523 574.364 92.6525 574.646 92.905C574.93 93.1593 575.154 93.4675 575.327 93.8297C575.496 94.1918 575.581 94.6202 575.581 95.1182C575.581 95.7294 575.409 96.2274 575.064 96.6157C574.717 97.0023 574.279 97.3122 573.751 97.5369C573.223 97.765 572.647 97.9199 572.017 98.0035C571.39 98.0871 570.792 98.1272 570.227 98.1272H566.709L567.669 96.4834V96.4851Z" fill="#363636"/>
<path d="M591.356 86.7173C590.355 86.7173 589.582 86.5275 589.045 86.1497C588.507 85.7735 588.237 85.2111 588.237 84.4658H590.076C590.076 85.0161 590.187 85.4288 590.41 85.7091C590.635 85.9877 590.95 86.127 591.356 86.127C591.762 86.127 592.073 85.9877 592.298 85.7091C592.523 85.4288 592.634 85.0161 592.634 84.4658H594.471C594.471 85.2111 594.205 85.7735 593.667 86.1497C593.129 86.5275 592.357 86.7173 591.356 86.7173ZM586.656 96.4807V89.1255L585.488 87.4939H589.933L588.733 89.1394V96.2648L593.898 87.4939H596.938L595.739 89.1394V96.4825L596.921 98.128H592.476L593.661 96.4825V89.3588L588.497 98.128H585.477L586.66 96.4825L586.656 96.4807Z" fill="#363636"/>
<path d="M359.12 119.92C359.355 120.035 359.627 120.091 359.937 120.091C360.48 120.091 360.912 119.957 361.229 119.685C361.551 119.419 361.798 119.1 361.972 118.731C362.152 118.365 362.265 117.991 362.317 117.613C362.369 117.237 362.397 116.942 362.397 116.737C362.397 115.621 362.138 114.773 361.615 114.2C361.093 113.625 360.261 113.34 359.12 113.34V119.92ZM357.107 113.477C356.874 113.362 356.601 113.305 356.291 113.305C355.747 113.305 355.315 113.442 354.999 113.711C354.676 113.979 354.429 114.297 354.255 114.667C354.077 115.032 353.963 115.405 353.91 115.784C353.856 116.161 353.83 116.453 353.83 116.659C353.83 117.776 354.091 118.624 354.614 119.197C355.134 119.772 355.967 120.058 357.107 120.058V113.477ZM357.107 120.836V120.648C356.991 120.669 356.862 120.684 356.722 120.695C356.585 120.705 356.44 120.711 356.291 120.711C355.556 120.711 354.894 120.592 354.309 120.361C353.724 120.127 353.228 119.826 352.824 119.46C352.418 119.091 352.106 118.678 351.889 118.219C351.669 117.759 351.561 117.294 351.561 116.829C351.561 116.26 351.666 115.722 351.88 115.215C352.092 114.707 352.409 114.263 352.832 113.883C353.254 113.5 353.783 113.197 354.42 112.974C355.063 112.749 355.807 112.641 356.66 112.641H356.891C356.961 112.641 357.031 112.645 357.107 112.654V112.56L355.925 110.914H360.304L359.12 112.56V112.748C359.237 112.727 359.366 112.711 359.505 112.699C359.643 112.69 359.789 112.683 359.937 112.683C360.672 112.683 361.333 112.802 361.918 113.033C362.505 113.265 363 113.568 363.406 113.932C363.811 114.301 364.121 114.715 364.342 115.175C364.56 115.635 364.67 116.098 364.67 116.565C364.67 117.134 364.565 117.672 364.356 118.179C364.149 118.685 363.83 119.129 363.406 119.511C362.979 119.896 362.446 120.199 361.807 120.418C361.166 120.643 360.421 120.754 359.568 120.754H359.336C359.267 120.754 359.197 120.749 359.12 120.738V120.832L360.304 122.476H355.925L357.107 120.832V120.836Z" fill="#363636"/>
<path d="M374.217 111.85C373.673 111.85 373.236 111.972 372.905 112.216C372.575 112.456 372.319 112.756 372.137 113.107C371.958 113.459 371.835 113.834 371.772 114.225C371.706 114.621 371.676 114.971 371.676 115.282C371.676 116.078 371.754 116.855 371.916 117.61C372.075 118.366 372.31 119.035 372.618 119.62C372.926 120.203 373.306 120.672 373.753 121.023C374.201 121.375 374.709 121.551 375.272 121.551C375.752 121.551 376.158 121.431 376.487 121.185C376.816 120.942 377.081 120.642 377.278 120.287C377.476 119.928 377.619 119.554 377.71 119.16C377.8 118.768 377.847 118.417 377.847 118.107C377.847 117.309 377.764 116.534 377.6 115.779C377.434 115.023 377.196 114.356 376.886 113.774C376.578 113.196 376.196 112.731 375.744 112.378C375.291 112.026 374.783 111.85 374.218 111.85H374.217ZM380.081 116.228C380.081 117.003 379.954 117.753 379.7 118.479C379.442 119.202 379.068 119.838 378.573 120.386C378.075 120.935 377.461 121.375 376.719 121.706C375.977 122.035 375.117 122.202 374.137 122.202C373.4 122.202 372.74 122.058 372.155 121.769C371.568 121.48 371.07 121.098 370.666 120.628C370.26 120.156 369.95 119.62 369.733 119.016C369.513 118.408 369.405 117.792 369.405 117.158C369.405 116.383 369.534 115.634 369.788 114.908C370.044 114.184 370.422 113.548 370.915 112.999C371.413 112.453 372.033 112.012 372.778 111.681C373.525 111.35 374.386 111.185 375.354 111.185C376.09 111.185 376.75 111.33 377.335 111.617C377.922 111.909 378.42 112.289 378.824 112.759C379.23 113.231 379.541 113.767 379.757 114.373C379.975 114.978 380.083 115.597 380.083 116.23L380.081 116.228Z" fill="#363636"/>
<path d="M395.77 122.016H391.328L392.51 120.373V116.848H387.697V120.373L388.881 122.016H384.436L385.62 120.373V113.016L384.45 111.386H388.897L387.697 113.03V116.152H392.51V113.016L391.342 111.386H395.787L394.587 113.03V120.373L395.77 122.016Z" fill="#363636"/>
<path d="M407.334 121.318V112.082H403.721C403.721 113.376 403.698 114.525 403.657 115.528C403.613 116.531 403.543 117.41 403.448 118.159C403.352 118.91 403.233 119.542 403.096 120.061C402.957 120.58 402.793 120.996 402.601 121.318H407.334ZM400.299 124.856V121.318H401.851C402.257 120.635 402.539 119.589 402.697 118.184C402.859 116.775 402.937 115.032 402.937 112.953L401.659 111.384H410.594L409.411 113.029V121.318H411.01V124.856L410.881 124.872L408.835 122.018H402.474L400.426 124.872L400.298 124.856H400.299Z" fill="#363636"/>
<path d="M21.8567 50.6089H12.6418C12.4972 50.6089 12.3997 50.5167 12.4972 50.2868L16.7425 37.8766C16.8383 37.5562 16.9845 37.3717 17.0803 37.3717C17.2248 37.3717 17.3206 37.5092 17.4686 37.8766L22.0517 50.2868C22.1005 50.4714 22.1005 50.6089 21.8567 50.6089ZM36.285 65.1783C35.8027 65.1783 35.0783 65.133 34.3557 64.9032C33.3422 64.6263 31.944 63.8915 30.2044 59.8012C27.2616 52.8152 19.6853 33.8334 18.9627 32.0868C18.3845 30.6642 18.1895 30.4326 17.9005 30.4326C17.6114 30.4326 17.4181 30.7077 16.84 32.2244L5.8873 60.7659C5.0184 63.0661 4.05372 64.8126 1.83358 65.0878C1.44875 65.1348 0.773133 65.1801 0.435323 65.1801C0.195025 65.1801 0 65.2724 0 65.4569C0 65.732 0.289054 65.8243 0.919401 65.8243C3.18656 65.8243 5.84029 65.6868 6.37138 65.6868C6.90073 65.6868 8.97461 65.8243 10.1326 65.8243C10.5661 65.8243 10.8587 65.732 10.8587 65.4569C10.8587 65.2724 10.7142 65.1801 10.3746 65.1801H9.89227C9.07212 65.1801 8.05869 64.7674 8.05869 63.8462C8.05869 63.0191 8.29899 61.9169 8.73431 60.7659L11.6301 52.6323C11.7241 52.4025 11.8704 52.2632 12.1107 52.2632H22.4853C22.7273 52.2632 22.8248 52.3555 22.9206 52.54L27.4079 63.8445C27.5037 64.0291 27.5037 64.3042 27.5037 64.4417C27.5037 64.8544 27.2146 65.086 27.1171 65.086C26.9726 65.086 26.781 65.2236 26.781 65.4082C26.781 65.685 27.3104 65.685 28.2263 65.7303C31.5574 65.8226 35.0783 65.8226 35.8027 65.8226C36.3338 65.8226 36.7673 65.7303 36.7673 65.4552C36.7673 65.2253 36.5741 65.1783 36.285 65.1783Z" fill="#363636"/>
<path d="M71.4657 32.6367C69.2455 32.6367 66.4473 32.7743 65.3851 32.7743C65.0003 32.7743 62.1045 32.6367 59.9331 32.6367C59.4038 32.6367 59.1635 32.729 59.1635 33.0059C59.1635 33.1887 59.355 33.281 59.5483 33.281C59.9801 33.281 60.802 33.328 61.1886 33.4186C62.7801 33.7407 63.1667 34.4755 63.2625 36.0375C63.3582 37.5071 63.3582 38.7957 63.3582 45.9663V54.0546C63.3582 58.467 63.3582 62.0976 63.1179 64.0287C62.9246 65.3608 62.6843 66.3725 61.7197 66.5571C61.2861 66.6493 60.7062 66.7416 60.2709 66.7416C59.9819 66.7416 59.8861 66.8792 59.8861 67.0168C59.8861 67.2919 60.1281 67.3824 60.6575 67.3824C62.1062 67.3824 65.1465 67.2449 65.2911 67.2449C65.5314 67.2449 68.5716 67.3824 71.2271 67.3824C71.7582 67.3824 71.9985 67.2449 71.9985 67.0168C71.9985 66.8774 71.9027 66.7416 71.6102 66.7416C71.1784 66.7416 70.1144 66.6493 69.4388 66.5571C67.9918 66.3725 67.7027 65.3625 67.5582 64.0287C67.3162 62.0993 67.3162 58.467 67.3162 54.0546V35.1651C67.3162 34.7054 67.4119 34.3832 67.701 34.2927C68.1363 34.1099 68.9547 34.0158 69.7749 34.0158C70.8858 34.0158 73.8286 33.833 76.3866 36.3161C78.9445 38.7974 79.0873 41.8777 79.0873 43.3909C79.0873 47.6205 75.4201 50.8854 70.7396 50.8854C69.7279 50.8854 69.4371 50.9307 69.4371 51.2981C69.4371 51.528 69.7279 51.6203 69.9699 51.6203C70.2102 51.6655 70.7396 51.6655 70.9833 51.6655C77.8336 51.6655 82.8537 47.2531 82.8537 40.7268C82.8537 38.2924 81.5025 36.222 80.442 35.2574C79.6689 34.5678 77.4975 32.6385 71.4674 32.6385L71.4657 32.6367Z" fill="#363636"/>
<path d="M141.714 65.1784C141.425 65.1784 140.702 65.0861 140.025 64.9033C138.625 64.4906 137.951 63.7993 137.178 62.8329C136.164 61.5931 127.914 48.2183 126.996 46.7939L134.766 35.6723C136.164 33.6959 137.084 32.3621 138.48 31.9476C139.011 31.7666 139.736 31.7195 140.072 31.7195C140.409 31.7195 140.603 31.5802 140.603 31.3974C140.603 31.2128 140.361 31.0735 139.833 31.0735C138.191 31.0735 136.213 31.2111 135.779 31.2111C135.346 31.2111 133.319 31.0735 131.485 31.0735C130.907 31.0735 130.663 31.2111 130.663 31.3974C130.663 31.6272 130.808 31.7195 131.097 31.7195C131.388 31.7195 132.063 31.7195 132.544 31.8571C133.028 31.9947 133.366 32.3638 133.366 32.6842C133.366 33.2362 133.22 33.6506 132.882 34.3384C132.401 35.3031 127.237 43.1616 125.79 45.1397C123.279 41.1887 121.302 37.7862 119.275 34.1539C118.986 33.6506 118.793 33.0969 118.793 32.6389C118.793 32.3151 118.938 31.9947 119.371 31.8554C119.759 31.7178 120.386 31.7178 120.674 31.7178C120.964 31.7178 121.107 31.6255 121.107 31.3957C121.107 31.1658 120.964 31.0718 120.287 31.0718C118.647 31.0718 116.186 31.2093 115.751 31.2093C115.366 31.2093 111.455 31.0718 110.106 31.0718C109.481 31.0718 109.287 31.1658 109.287 31.3957C109.287 31.5785 109.43 31.7178 109.719 31.7178C110.008 31.7178 110.975 31.8101 111.746 32.0399C113.385 32.5919 114.4 33.9223 115.509 35.7158L123.228 48.079L114.495 61.224C112.902 63.5695 111.938 64.5812 110.489 64.9468C109.764 65.1314 109.042 65.1767 108.655 65.1767C108.413 65.1767 108.27 65.3143 108.27 65.4988C108.27 65.6817 108.366 65.821 108.753 65.821C110.344 65.821 112.709 65.6817 113.143 65.6817C113.578 65.6817 116.618 65.821 117.776 65.821C118.114 65.821 118.354 65.7287 118.354 65.4988C118.354 65.316 118.21 65.1767 117.969 65.1767C117.727 65.1767 117.343 65.1314 117.05 65.0844C116.618 64.9921 116.28 64.6717 116.28 64.2103C116.28 63.7506 116.474 62.9235 116.907 62.1886L124.433 50.0083C127.329 54.6506 130.127 59.2006 132.734 63.7036C133.166 64.4384 132.734 64.8998 132.49 64.9921C132.297 65.0391 132.201 65.1767 132.201 65.3595C132.201 65.5894 132.441 65.6364 133.697 65.7287C136.159 65.7757 138.475 65.821 141.418 65.821C141.851 65.821 142.093 65.6817 142.093 65.4536C142.093 65.269 141.95 65.1767 141.708 65.1767L141.714 65.1784Z" fill="#363636"/>
<path d="M205.269 65.1774C204.834 65.1774 203.774 65.0851 203.098 64.9928C201.651 64.8082 201.362 63.7983 201.218 62.4644C200.975 60.5351 200.975 56.901 200.975 52.4903V44.402V31.7167C201.218 30.2001 200.444 30.0155 199.818 30.9802C189.925 43.1605 183.171 50.8361 176.321 58.4194C176.126 58.6493 175.885 58.604 175.885 58.2366C175.885 43.0682 175.885 35.9446 175.983 34.4749C176.077 32.866 176.463 32.0841 177.766 31.8543C178.344 31.7637 178.636 31.7167 178.973 31.7167C179.166 31.7167 179.361 31.6244 179.361 31.4399C179.361 31.1647 179.121 31.0707 178.588 31.0707C177.141 31.0707 174.1 31.2083 173.86 31.2083C173.616 31.2083 170.579 31.0707 168.406 31.0707C167.877 31.0707 167.637 31.1647 167.637 31.4399C167.637 31.6244 167.828 31.7167 168.023 31.7167C168.455 31.7167 169.275 31.7637 169.662 31.8543C171.255 32.1764 171.642 32.913 171.736 34.4749C171.835 35.9446 171.736 37.2331 171.835 44.402V65.543C171.593 67.0597 172.366 67.2425 172.993 66.2779L173.573 65.543L177.576 60.6256C183.559 53.1799 189.882 45.964 196.25 38.8856C196.685 38.3807 196.925 38.6558 196.925 39.2095V52.4903C196.925 56.901 196.925 60.5334 196.685 62.4644C196.49 63.7965 196.25 64.8082 195.285 64.9928C194.851 65.0851 194.272 65.1774 193.838 65.1774C193.549 65.1774 193.451 65.3149 193.451 65.4542C193.451 65.7294 193.692 65.8217 194.223 65.8217C195.67 65.8217 198.71 65.6823 198.95 65.6823C199.194 65.6823 202.233 65.8217 204.886 65.8217C205.416 65.8217 205.658 65.6823 205.658 65.4542C205.658 65.3167 205.562 65.1774 205.273 65.1774H205.269Z" fill="#363636"/>
<path d="M266.307 57.5022C266.017 57.5022 265.92 57.6868 265.824 58.1918C265.68 59.0189 265.053 61.0423 264.038 62.0522C262.11 63.9363 259.261 64.349 255.643 64.349C245.317 64.349 238.223 56.3077 238.223 47.5281C238.223 39.3946 241.263 32.1769 253.665 32.1769C259.695 32.1769 265.342 34.108 265.342 39.4851C265.342 40.1276 265.391 40.4498 265.728 40.4498C266.113 40.4498 266.209 39.7602 266.209 37.5557C266.209 34.8898 266.549 32.6836 266.549 32.1769C266.549 31.9018 266.453 31.6719 265.922 31.6719C264.088 31.6719 259.745 30.4321 254.004 30.4321C238.662 30.4321 233.882 40.5421 233.882 47.8955C233.882 58.5122 240.927 66.4629 255.645 66.4629C258.734 66.4629 262.401 66.1408 264.328 65.4059C265.199 65.0385 265.295 64.9462 265.584 64.0739C266.066 62.5119 266.646 58.5122 266.646 58.1918C266.646 57.8226 266.55 57.5022 266.308 57.5022H266.307Z" fill="#363636"/>
<path d="M362.142 31.0737C359.922 31.0737 357.124 31.2113 356.062 31.2113C355.675 31.2113 352.781 31.0737 350.608 31.0737C350.077 31.0737 349.838 31.166 349.838 31.4429C349.838 31.6257 350.03 31.718 350.225 31.718C350.657 31.718 351.477 31.765 351.863 31.8556C353.457 32.1777 353.843 32.9143 353.937 34.4745C354.037 35.9459 354.037 37.2327 354.037 44.4033V52.4899C354.037 56.9023 354.037 60.5329 353.794 62.4657C353.599 63.7978 353.361 64.8095 352.396 64.9923C351.963 65.0846 351.383 65.1769 350.947 65.1769C350.658 65.1769 350.561 65.3145 350.561 65.452C350.561 65.7289 350.801 65.8177 351.332 65.8177C352.781 65.8177 355.82 65.6801 355.966 65.6801C356.21 65.6801 359.246 65.8177 361.902 65.8177C362.433 65.8177 362.672 65.6801 362.672 65.452C362.672 65.3127 362.578 65.1769 362.285 65.1769C361.853 65.1769 360.789 65.0846 360.114 64.9923C358.667 64.8095 358.378 63.7978 358.231 62.4657C357.991 60.5346 357.991 56.9023 357.991 52.4899V33.6003C357.991 33.1424 358.087 32.8185 358.378 32.728C358.813 32.5451 359.631 32.4511 360.451 32.4511C361.562 32.4511 364.505 32.2683 367.065 34.7513C369.619 37.2327 369.766 40.313 369.766 41.8297C369.766 46.0575 366.098 49.3207 361.42 49.3207C360.406 49.3207 360.115 49.366 360.115 49.7334C360.115 49.9632 360.406 50.0555 360.646 50.0555C360.89 50.1026 361.42 50.1025 361.662 50.1025C368.512 50.1025 373.53 45.6901 373.53 39.162C373.53 36.7277 372.179 34.6573 371.119 33.6926C370.347 33.0048 368.176 31.0737 362.146 31.0737H362.142Z" fill="#363636"/>
<path d="M418.21 50.6085H408.995C408.85 50.6085 408.754 50.5162 408.85 50.2863L413.095 37.8761C413.191 37.5557 413.336 37.3712 413.433 37.3712C413.578 37.3712 413.677 37.5087 413.822 37.8761L418.403 50.2863C418.452 50.4709 418.452 50.6085 418.21 50.6085ZM432.64 65.1778C432.156 65.1778 431.433 65.1326 430.707 64.9027C429.695 64.6258 428.295 63.891 426.557 59.8007C423.615 52.8147 416.038 33.8329 415.316 32.0864C414.739 30.6637 414.544 30.4321 414.255 30.4321C413.966 30.4321 413.773 30.7073 413.195 32.2239L402.24 60.7654C401.373 63.0656 400.408 64.8122 398.19 65.0873C397.803 65.1343 397.13 65.1796 396.792 65.1796C396.551 65.1796 396.356 65.2719 396.356 65.4564C396.356 65.7316 396.646 65.8238 397.274 65.8238C399.541 65.8238 402.195 65.6863 402.726 65.6863C403.257 65.6863 405.331 65.8238 406.489 65.8238C406.923 65.8238 407.213 65.7316 407.213 65.4564C407.213 65.2719 407.071 65.1796 406.731 65.1796H406.25C405.43 65.1796 404.415 64.7669 404.415 63.8457C404.415 63.0186 404.655 61.9164 405.091 60.7654L407.987 52.6318C408.081 52.402 408.227 52.2627 408.467 52.2627H418.843C419.084 52.2627 419.181 52.355 419.277 52.5395L423.764 63.844C423.86 64.0286 423.86 64.3037 423.86 64.4413C423.86 64.8539 423.571 65.0855 423.475 65.0855C423.331 65.0855 423.137 65.2231 423.137 65.4077C423.137 65.6845 423.67 65.6845 424.586 65.7298C427.914 65.8221 431.438 65.8221 432.161 65.8221C432.692 65.8221 433.124 65.7298 433.124 65.4547C433.124 65.2248 432.932 65.1778 432.645 65.1778H432.64Z" fill="#363636"/>
<path d="M484.22 30.7523C483.836 30.7523 482.531 31.212 479.442 31.212H461.348C460.77 31.212 458.937 31.1197 457.535 30.9822C456.233 30.8881 455.752 30.4302 455.412 30.4302C455.221 30.4302 455.026 31.0274 454.932 31.3026C454.836 31.6717 453.87 35.6227 453.87 36.0824C453.87 36.3593 453.969 36.4951 454.11 36.4951C454.305 36.4951 454.449 36.4028 454.594 36.0371C454.739 35.7133 454.885 35.3929 455.414 34.6128C456.186 33.5088 457.345 33.1884 460.335 33.1414L467.478 33.0491V52.4906C467.478 56.903 467.478 60.5336 467.234 62.4647C467.041 63.7985 466.802 64.8102 465.836 64.993C465.404 65.0853 464.822 65.1759 464.389 65.1759C464.1 65.1759 464.002 65.3134 464.002 65.4528C464.002 65.7296 464.242 65.8184 464.774 65.8184C466.222 65.8184 469.261 65.6809 469.503 65.6809C469.743 65.6809 472.785 65.8184 475.437 65.8184C475.97 65.8184 476.21 65.6809 476.21 65.4528C476.21 65.3134 476.113 65.1759 475.822 65.1759C475.389 65.1759 474.328 65.0836 473.651 64.993C472.204 64.8102 471.916 63.7985 471.77 62.4647C471.53 60.5353 471.53 56.903 471.53 52.4906V33.0491L477.61 33.1414C482.244 33.2337 483.353 34.2906 483.545 35.6697L483.592 36.1764C483.642 36.819 483.736 36.9565 483.98 36.9565C484.172 36.9565 484.318 36.7737 484.318 36.361C484.318 35.8543 484.461 32.6834 484.461 31.3043C484.461 31.0274 484.461 30.7523 484.22 30.7523Z" fill="#363636"/>
<path d="M549.264 65.1769C548.827 65.1769 547.768 65.0846 547.091 64.9923C545.645 64.8077 545.356 63.7978 545.21 62.464C544.97 60.5346 544.97 56.9005 544.97 52.4898V44.4015V31.7162C545.21 30.1996 544.439 30.015 543.81 30.9797C533.918 43.16 527.163 50.8356 520.311 58.4189C520.118 58.6488 519.878 58.6035 519.878 58.2361C519.878 43.0677 519.878 35.9441 519.974 34.4745C520.069 32.8655 520.456 32.0837 521.758 31.8538C522.337 31.7633 522.627 31.7162 522.965 31.7162C523.158 31.7162 523.353 31.624 523.353 31.4394C523.353 31.1643 523.11 31.0702 522.58 31.0702C521.133 31.0702 518.093 31.2078 517.853 31.2078C517.611 31.2078 514.57 31.0702 512.401 31.0702C511.87 31.0702 511.631 31.1643 511.631 31.4394C511.631 31.624 511.823 31.7162 512.018 31.7162C512.45 31.7162 513.27 31.7633 513.656 31.8538C515.249 32.1759 515.636 32.9125 515.73 34.4745C515.826 35.9441 515.73 37.2327 515.826 44.4015V65.5426C515.586 67.0592 516.357 67.2421 516.986 66.2774L517.564 65.5426L521.569 60.6252C527.55 53.1794 533.874 45.9635 540.242 38.8851C540.676 38.3802 540.918 38.6553 540.918 39.209V52.4898C540.918 56.9005 540.918 60.5329 540.678 62.464C540.484 63.796 540.244 64.8077 539.278 64.9923C538.844 65.0846 538.264 65.1769 537.831 65.1769C537.542 65.1769 537.442 65.3144 537.442 65.4537C537.442 65.7289 537.686 65.8212 538.215 65.8212C539.662 65.8212 542.703 65.6819 542.943 65.6819C543.187 65.6819 546.224 65.8212 548.879 65.8212C549.41 65.8212 549.65 65.6819 549.65 65.4537C549.65 65.3162 549.555 65.1769 549.266 65.1769H549.264Z" fill="#363636"/>
<path d="M600.076 30.6626C599.884 30.6626 599.689 30.8454 599.4 30.9377C599.209 30.9847 598.049 31.0753 597.278 31.1223C596.602 31.1676 586.374 31.2146 585.407 31.2146C585.167 31.2146 582.127 31.0753 579.955 31.0753C579.424 31.0753 579.185 31.1676 579.185 31.4444C579.185 31.6273 579.377 31.7196 579.57 31.7196C580.004 31.7196 580.824 31.7666 581.211 31.8589C582.802 32.181 583.091 32.8706 583.237 33.9728C583.333 34.7529 583.382 36.684 583.382 44.4049V52.4932C583.382 58.1001 583.286 61.823 583.042 63.0193C582.755 64.3513 582.513 64.764 581.743 64.9939C581.308 65.1314 580.728 65.1767 580.293 65.1767C580.006 65.1767 579.908 65.316 579.908 65.4536C579.908 65.7304 580.148 65.8192 580.68 65.8192C582.128 65.8192 584.975 65.6817 585.216 65.6817C585.456 65.6817 588.498 65.8192 591.152 65.8192C591.681 65.8192 591.925 65.6817 591.925 65.4536C591.925 65.316 591.827 65.1767 591.536 65.1767C591.103 65.1767 590.041 65.0844 589.365 64.9939C588.305 64.8563 587.723 64.212 587.53 62.9252C587.289 61.4086 587.242 56.9038 587.242 52.4914V33.4173C587.242 33.0516 587.385 32.9123 587.674 32.9123L594.286 33.0516C597.135 33.0516 598.293 33.9711 598.58 34.5683C598.871 35.1673 599.015 35.9474 599.015 36.3148C599.015 36.637 599.109 36.8215 599.351 36.8215C599.593 36.8215 599.689 36.5917 599.736 36.3618C599.834 35.8099 599.931 33.7865 599.977 33.3285C600.121 32.04 600.365 31.488 600.365 31.1676C600.365 30.9377 600.269 30.6626 600.074 30.6626H600.076Z" fill="#363636"/>
<path d="M310.429 26.0375V0H310.396H305.992V26.0375H306.028H310.429Z" fill="#363636"/>
<path d="M330.173 33.5555V31.1247V31.1021L286.247 31.1247V33.5085V33.5555H330.173Z" fill="#363636"/>
<path d="M310.337 38.0151L309.158 186.486C309.158 187.03 308.633 193.84 308.213 193.84C307.79 193.84 307.318 187.03 307.318 186.486L306.085 38.0151H303.806L305.362 188.461C305.362 190.658 306.061 196.535 308.209 196.535C310.362 196.535 311.056 190.658 311.056 188.461L312.615 38.0151H310.336H310.337Z" fill="#363636"/>
</svg>
