<svg width="221" height="73" viewBox="0 0 221 73" fill="none" xmlns="http://www.w3.org/2000/svg">
<path d="M8.04566 18.6297H4.65356C4.60036 18.6297 4.56447 18.5958 4.60036 18.5112L6.16309 13.9429C6.19834 13.8249 6.25218 13.757 6.28744 13.757C6.34064 13.757 6.37589 13.8076 6.43038 13.9429L8.11745 18.5112C8.1354 18.5791 8.1354 18.6297 8.04566 18.6297ZM13.3569 23.9929C13.1793 23.9929 12.9127 23.9762 12.6467 23.8916C12.2736 23.7897 11.7589 23.5192 11.1186 22.0135C10.0353 19.4419 7.24635 12.4545 6.98034 11.8116C6.76754 11.2879 6.69575 11.2026 6.58934 11.2026C6.48294 11.2026 6.41179 11.3039 6.19898 11.8622L2.16718 22.3686C1.84732 23.2154 1.49222 23.8583 0.674959 23.9596C0.533301 23.9769 0.284598 23.9935 0.160247 23.9935C0.0717905 23.9935 0 24.0275 0 24.0954C0 24.1967 0.106404 24.2307 0.338441 24.2307C1.17301 24.2307 2.14987 24.1801 2.34537 24.1801C2.54023 24.1801 3.30364 24.2307 3.7299 24.2307C3.88951 24.2307 3.99719 24.1967 3.99719 24.0954C3.99719 24.0275 3.94399 23.9935 3.819 23.9935H3.64144C3.33954 23.9935 2.96649 23.8416 2.96649 23.5025C2.96649 23.1981 3.05494 22.7923 3.21519 22.3686L4.28115 19.3746C4.31576 19.29 4.36961 19.2387 4.45806 19.2387H8.27706C8.36616 19.2387 8.40205 19.2727 8.43731 19.3406L10.0891 23.5019C10.1244 23.5698 10.1244 23.6711 10.1244 23.7217C10.1244 23.8737 10.018 23.9589 9.98208 23.9589C9.92888 23.9589 9.85837 24.0095 9.85837 24.0775C9.85837 24.1794 10.0532 24.1794 10.3904 24.1961C11.6166 24.23 12.9127 24.23 13.1793 24.23C13.3748 24.23 13.5344 24.1961 13.5344 24.0948C13.5344 24.0102 13.4633 23.9929 13.3569 23.9929Z" fill="#2B2A29"/>
<path d="M26.3068 12.0137C25.4895 12.0137 24.4594 12.0643 24.0684 12.0643C23.9268 12.0643 22.8608 12.0137 22.0615 12.0137C21.8667 12.0137 21.7782 12.0476 21.7782 12.1496C21.7782 12.2169 21.8487 12.2508 21.9199 12.2508C22.0788 12.2508 22.3814 12.2681 22.5237 12.3015C23.1095 12.4201 23.2518 12.6906 23.2871 13.2655C23.3223 13.8065 23.3223 14.2808 23.3223 16.9204V19.8978C23.3223 21.5221 23.3223 22.8585 23.2339 23.5694C23.1627 24.0597 23.0743 24.4321 22.7192 24.5001C22.5596 24.5341 22.3461 24.568 22.1859 24.568C22.0795 24.568 22.0442 24.6187 22.0442 24.6693C22.0442 24.7706 22.1333 24.8039 22.3282 24.8039C22.8615 24.8039 23.9806 24.7533 24.0338 24.7533C24.1223 24.7533 25.2414 24.8039 26.219 24.8039C26.4145 24.8039 26.5029 24.7533 26.5029 24.6693C26.5029 24.618 26.4677 24.568 26.36 24.568C26.201 24.568 25.8094 24.5341 25.5607 24.5001C25.028 24.4321 24.9216 24.0604 24.8684 23.5694C24.7793 22.8592 24.7793 21.5221 24.7793 19.8978V12.9444C24.7793 12.7752 24.8146 12.6566 24.921 12.6233C25.0812 12.5559 25.3825 12.5213 25.6844 12.5213C26.0933 12.5213 27.1766 12.454 28.1182 13.3681C29.0598 14.2815 29.1124 15.4154 29.1124 15.9724C29.1124 17.5294 27.7625 18.7312 26.0395 18.7312C25.6671 18.7312 25.56 18.7479 25.56 18.8831C25.56 18.9677 25.6671 19.0017 25.7562 19.0017C25.8446 19.0184 26.0395 19.0184 26.1292 19.0184C28.6509 19.0184 30.4988 17.3941 30.4988 14.9917C30.4988 14.0956 30.0014 13.3335 29.6111 12.9784C29.3265 12.7245 28.5271 12.0143 26.3074 12.0143L26.3068 12.0137Z" fill="#2B2A29"/>
<path d="M52.1674 23.993C52.061 23.993 51.7949 23.959 51.5456 23.8917C51.0302 23.7398 50.7822 23.4853 50.4976 23.1296C50.1245 22.6732 47.0875 17.7498 46.7497 17.2255L49.6098 13.1315C50.1245 12.404 50.463 11.913 50.977 11.7604C51.1725 11.6937 51.4392 11.6764 51.5629 11.6764C51.6873 11.6764 51.7584 11.6252 51.7584 11.5579C51.7584 11.4899 51.6693 11.4386 51.4751 11.4386C50.8706 11.4386 50.1425 11.4893 49.9829 11.4893C49.8233 11.4893 49.0772 11.4386 48.4022 11.4386C48.1894 11.4386 48.0997 11.4893 48.0997 11.5579C48.0997 11.6425 48.1529 11.6764 48.2593 11.6764C48.3663 11.6764 48.615 11.6764 48.7919 11.7271C48.9701 11.7777 49.0945 11.9136 49.0945 12.0315C49.0945 12.2347 49.0406 12.3873 48.9163 12.6405C48.7394 12.9956 46.8382 15.8884 46.3055 16.6165C45.3812 15.1621 44.6537 13.9096 43.9076 12.5725C43.8012 12.3873 43.73 12.1835 43.73 12.0149C43.73 11.8957 43.7833 11.7777 43.9429 11.7264C44.0858 11.6758 44.3166 11.6758 44.4223 11.6758C44.5294 11.6758 44.5819 11.6418 44.5819 11.5572C44.5819 11.4726 44.5294 11.438 44.28 11.438C43.6762 11.438 42.7705 11.4886 42.6102 11.4886C42.4686 11.4886 41.0289 11.438 40.5322 11.438C40.3021 11.438 40.2309 11.4726 40.2309 11.5572C40.2309 11.6245 40.2835 11.6758 40.3899 11.6758C40.4963 11.6758 40.852 11.7098 41.136 11.7944C41.7391 11.9976 42.1128 12.4873 42.5211 13.1475L45.3626 17.6985L42.1481 22.5373C41.5616 23.4007 41.2065 23.7731 40.6732 23.9077C40.4065 23.9757 40.1405 23.9924 39.9982 23.9924C39.9091 23.9924 39.8566 24.043 39.8566 24.1109C39.8566 24.1782 39.8918 24.2295 40.0341 24.2295C40.62 24.2295 41.4904 24.1782 41.65 24.1782C41.8103 24.1782 42.9295 24.2295 43.3557 24.2295C43.4801 24.2295 43.5685 24.1955 43.5685 24.1109C43.5685 24.0436 43.5153 23.9924 43.4269 23.9924C43.3378 23.9924 43.1961 23.9757 43.0884 23.9584C42.9295 23.9244 42.8051 23.8065 42.8051 23.6366C42.8051 23.4674 42.8763 23.1629 43.0359 22.8924L45.8062 18.4087C46.8722 20.1176 47.9022 21.7925 48.8618 23.4501C49.0208 23.7206 48.8618 23.8904 48.7721 23.9244C48.7009 23.9417 48.6656 23.9924 48.6656 24.0597C48.6656 24.1443 48.7541 24.1616 49.2163 24.1955C50.1226 24.2129 50.9751 24.2295 52.0584 24.2295C52.218 24.2295 52.3071 24.1782 52.3071 24.0943C52.3071 24.0263 52.2545 23.9924 52.1654 23.9924L52.1674 23.993Z" fill="#2B2A29"/>
<path d="M75.5608 23.9927C75.4005 23.9927 75.0102 23.9587 74.7615 23.9248C74.2288 23.8568 74.1224 23.485 74.0692 22.994C73.9801 22.2838 73.9801 20.9461 73.9801 19.3225V16.3451V11.6755C74.0692 11.1172 73.7846 11.0493 73.5538 11.4044C69.9124 15.8881 67.426 18.7135 64.9044 21.505C64.8326 21.5896 64.7441 21.573 64.7441 21.4377C64.7441 15.8541 64.7441 13.2318 64.78 12.6908C64.8146 12.0985 64.9569 11.8107 65.4364 11.7261C65.6492 11.6928 65.7569 11.6755 65.8806 11.6755C65.9517 11.6755 66.0235 11.6415 66.0235 11.5736C66.0235 11.4723 65.9351 11.4377 65.7389 11.4377C65.2063 11.4377 64.0871 11.4883 63.9986 11.4883C63.9089 11.4883 62.791 11.4377 61.9911 11.4377C61.7962 11.4377 61.7078 11.4723 61.7078 11.5736C61.7078 11.6415 61.7783 11.6755 61.8501 11.6755C62.009 11.6755 62.3109 11.6928 62.4532 11.7261C63.0397 11.8447 63.182 12.1159 63.2166 12.6908C63.2532 13.2318 63.2166 13.7061 63.2532 16.3451V24.1273C63.1641 24.6856 63.4487 24.7529 63.6794 24.3978L63.8929 24.1273L65.3665 22.3172C67.5689 19.5763 69.8964 16.9201 72.2405 14.3144C72.4007 14.1286 72.4892 14.2298 72.4892 14.4337V19.3225C72.4892 20.9461 72.4892 22.2832 72.4007 22.994C72.3289 23.4844 72.2405 23.8568 71.8853 23.9248C71.7257 23.9587 71.5123 23.9927 71.3527 23.9927C71.2463 23.9927 71.2104 24.0433 71.2104 24.0946C71.2104 24.1959 71.2988 24.2299 71.4943 24.2299C72.027 24.2299 73.1462 24.1786 73.2346 24.1786C73.3244 24.1786 74.4429 24.2299 75.4197 24.2299C75.6146 24.2299 75.7037 24.1786 75.7037 24.0946C75.7037 24.044 75.6684 23.9927 75.562 23.9927H75.5608Z" fill="#2B2A29"/>
<path d="M98.0308 21.1669C97.9244 21.1669 97.8885 21.2349 97.8532 21.4208C97.8 21.7252 97.5693 22.4701 97.1956 22.8418C96.486 23.5354 95.4373 23.6873 94.1054 23.6873C90.3043 23.6873 87.6929 20.7272 87.6929 17.4954C87.6929 14.5013 88.8121 11.8444 93.3772 11.8444C95.597 11.8444 97.6757 12.5553 97.6757 14.5346C97.6757 14.7712 97.6936 14.8897 97.818 14.8897C97.9596 14.8897 97.9949 14.6359 97.9949 13.8244C97.9949 12.8431 98.1199 12.0309 98.1199 11.8444C98.1199 11.7431 98.0846 11.6585 97.8891 11.6585C97.2142 11.6585 95.6155 11.2021 93.5022 11.2021C87.8545 11.2021 86.095 14.9237 86.095 17.6306C86.095 21.5387 88.6884 24.4654 94.106 24.4654C95.2431 24.4654 96.593 24.3469 97.3026 24.0764C97.6231 23.9411 97.6584 23.9071 97.7648 23.586C97.9423 23.011 98.1558 21.5387 98.1558 21.4208C98.1558 21.2849 98.1205 21.1669 98.0314 21.1669H98.0308Z" fill="#2B2A29"/>
<path d="M133.308 11.439C132.49 11.439 131.46 11.4896 131.069 11.4896C130.927 11.4896 129.862 11.439 129.062 11.439C128.866 11.439 128.778 11.4729 128.778 11.5749C128.778 11.6422 128.849 11.6761 128.921 11.6761C129.08 11.6761 129.382 11.6934 129.524 11.7268C130.11 11.8453 130.253 12.1165 130.287 12.6908C130.324 13.2324 130.324 13.7061 130.324 16.3457V19.3225C130.324 20.9467 130.324 22.2832 130.235 22.9947C130.163 23.485 130.075 23.8574 129.72 23.9247C129.56 23.9587 129.347 23.9927 129.187 23.9927C129.08 23.9927 129.044 24.0433 129.044 24.094C129.044 24.1959 129.133 24.2286 129.328 24.2286C129.862 24.2286 130.98 24.1779 131.034 24.1779C131.124 24.1779 132.242 24.2286 133.219 24.2286C133.415 24.2286 133.503 24.1779 133.503 24.094C133.503 24.0427 133.468 23.9927 133.36 23.9927C133.201 23.9927 132.81 23.9587 132.561 23.9247C132.028 23.8574 131.922 23.485 131.868 22.9947C131.78 22.2838 131.78 20.9467 131.78 19.3225V12.369C131.78 12.2005 131.815 12.0812 131.922 12.0479C132.082 11.9806 132.383 11.946 132.685 11.946C133.094 11.946 134.177 11.8787 135.12 12.7927C136.06 13.7061 136.114 14.84 136.114 15.3983C136.114 16.9547 134.764 18.1559 133.042 18.1559C132.669 18.1559 132.562 18.1725 132.562 18.3078C132.562 18.3924 132.669 18.4264 132.757 18.4264C132.847 18.4437 133.042 18.4437 133.131 18.4437C135.652 18.4437 137.5 16.8194 137.5 14.4163C137.5 13.5202 137.002 12.7581 136.612 12.403C136.328 12.1498 135.529 11.439 133.309 11.439H133.308Z" fill="#2B2A29"/>
<path d="M153.947 18.6293H150.555C150.501 18.6293 150.466 18.5953 150.501 18.5107L152.064 13.9424C152.099 13.8244 152.153 13.7565 152.189 13.7565C152.242 13.7565 152.278 13.8071 152.331 13.9424L154.018 18.5107C154.036 18.5786 154.036 18.6293 153.947 18.6293ZM159.259 23.9924C159.08 23.9924 158.814 23.9757 158.547 23.8911C158.175 23.7892 157.659 23.5187 157.02 22.013C155.936 19.4414 153.147 12.454 152.881 11.8111C152.669 11.2874 152.597 11.2021 152.491 11.2021C152.385 11.2021 152.313 11.3034 152.101 11.8617L148.068 22.3681C147.749 23.2149 147.394 23.8578 146.577 23.9591C146.435 23.9764 146.187 23.993 146.063 23.993C145.974 23.993 145.902 24.027 145.902 24.095C145.902 24.1962 146.009 24.2302 146.24 24.2302C147.075 24.2302 148.052 24.1796 148.247 24.1796C148.443 24.1796 149.206 24.2302 149.632 24.2302C149.792 24.2302 149.899 24.1962 149.899 24.095C149.899 24.027 149.846 23.993 149.721 23.993H149.544C149.243 23.993 148.869 23.8411 148.869 23.502C148.869 23.1976 148.957 22.7918 149.118 22.3681L150.183 19.3741C150.218 19.2895 150.272 19.2382 150.36 19.2382H154.18C154.269 19.2382 154.304 19.2722 154.34 19.3401L155.991 23.5014C156.027 23.5693 156.027 23.6706 156.027 23.7213C156.027 23.8732 155.92 23.9584 155.885 23.9584C155.832 23.9584 155.761 24.0091 155.761 24.077C155.761 24.1789 155.957 24.1789 156.294 24.1956C157.519 24.2296 158.816 24.2296 159.082 24.2296C159.278 24.2296 159.437 24.1956 159.437 24.0943C159.437 24.0097 159.366 23.9924 159.26 23.9924H159.259Z" fill="#2B2A29"/>
<path d="M178.246 11.3202C178.104 11.3202 177.624 11.4895 176.487 11.4895H169.827C169.614 11.4895 168.939 11.4555 168.423 11.4049C167.943 11.3702 167.766 11.2017 167.641 11.2017C167.571 11.2017 167.499 11.4215 167.464 11.5228C167.429 11.6587 167.073 13.1131 167.073 13.2823C167.073 13.3842 167.11 13.4342 167.162 13.4342C167.234 13.4342 167.287 13.4002 167.34 13.2656C167.393 13.1464 167.447 13.0285 167.642 12.7413C167.926 12.3349 168.353 12.217 169.453 12.1997L172.083 12.1657V19.3223C172.083 20.9466 172.083 22.283 171.993 22.9939C171.922 23.4849 171.834 23.8573 171.478 23.9246C171.319 23.9586 171.105 23.9919 170.946 23.9919C170.839 23.9919 170.803 24.0425 170.803 24.0938C170.803 24.1957 170.892 24.2284 171.087 24.2284C171.621 24.2284 172.739 24.1778 172.828 24.1778C172.917 24.1778 174.037 24.2284 175.013 24.2284C175.209 24.2284 175.297 24.1778 175.297 24.0938C175.297 24.0425 175.261 23.9919 175.154 23.9919C174.995 23.9919 174.604 23.9579 174.355 23.9246C173.822 23.8573 173.717 23.4849 173.663 22.9939C173.574 22.2837 173.574 20.9466 173.574 19.3223V12.1657L175.813 12.1997C177.518 12.2336 177.927 12.6227 177.997 13.1304L178.014 13.3169C178.033 13.5534 178.068 13.6041 178.157 13.6041C178.228 13.6041 178.282 13.5368 178.282 13.3849C178.282 13.1983 178.334 12.0311 178.334 11.5234C178.334 11.4215 178.334 11.3202 178.246 11.3202Z" fill="#2B2A29"/>
<path d="M202.19 23.9922C202.029 23.9922 201.639 23.9582 201.39 23.9243C200.858 23.8563 200.752 23.4845 200.698 22.9936C200.609 22.2833 200.609 20.9456 200.609 19.322V16.3446V11.675C200.698 11.1167 200.414 11.0488 200.182 11.4039C196.541 15.8876 194.055 18.713 191.532 21.5045C191.461 21.5891 191.373 21.5725 191.373 21.4372C191.373 15.8536 191.373 13.2313 191.408 12.6903C191.443 12.0981 191.585 11.8103 192.065 11.7256C192.278 11.6923 192.385 11.675 192.509 11.675C192.58 11.675 192.652 11.641 192.652 11.5731C192.652 11.4718 192.562 11.4372 192.367 11.4372C191.835 11.4372 190.716 11.4878 190.627 11.4878C190.538 11.4878 189.419 11.4372 188.62 11.4372C188.425 11.4372 188.337 11.4718 188.337 11.5731C188.337 11.641 188.407 11.675 188.479 11.675C188.638 11.675 188.94 11.6923 189.082 11.7256C189.669 11.8442 189.811 12.1154 189.846 12.6903C189.881 13.2313 189.846 13.7057 189.881 16.3446V24.1268C189.793 24.6851 190.077 24.7524 190.308 24.3973L190.521 24.1268L191.995 22.3167C194.197 19.5758 196.525 16.9196 198.869 14.314C199.029 14.1281 199.118 14.2293 199.118 14.4332V19.322C199.118 20.9456 199.118 22.2827 199.029 22.9936C198.958 23.4839 198.87 23.8563 198.514 23.9243C198.354 23.9582 198.141 23.9922 197.981 23.9922C197.875 23.9922 197.838 24.0428 197.838 24.0941C197.838 24.1954 197.928 24.2294 198.123 24.2294C198.656 24.2294 199.775 24.1781 199.863 24.1781C199.953 24.1781 201.071 24.2294 202.048 24.2294C202.244 24.2294 202.332 24.1781 202.332 24.0941C202.332 24.0435 202.297 23.9922 202.191 23.9922H202.19Z" fill="#2B2A29"/>
<path d="M220.894 11.2871C220.823 11.2871 220.751 11.3544 220.645 11.3884C220.574 11.4057 220.147 11.439 219.863 11.4563C219.615 11.473 215.85 11.4903 215.494 11.4903C215.405 11.4903 214.286 11.439 213.487 11.439C213.291 11.439 213.204 11.473 213.204 11.5749C213.204 11.6422 213.274 11.6762 213.345 11.6762C213.505 11.6762 213.807 11.6935 213.949 11.7275C214.535 11.8461 214.641 12.0999 214.695 12.5056C214.73 12.7928 214.748 13.5036 214.748 16.3458V19.3232C214.748 21.3871 214.713 22.7576 214.623 23.1979C214.518 23.6883 214.429 23.8402 214.145 23.9248C213.985 23.9754 213.772 23.9921 213.611 23.9921C213.506 23.9921 213.47 24.0434 213.47 24.094C213.47 24.1959 213.558 24.2286 213.754 24.2286C214.287 24.2286 215.335 24.178 215.423 24.178C215.512 24.178 216.632 24.2286 217.608 24.2286C217.803 24.2286 217.893 24.178 217.893 24.094C217.893 24.0434 217.857 23.9921 217.75 23.9921C217.591 23.9921 217.2 23.9581 216.951 23.9248C216.56 23.8742 216.346 23.637 216.275 23.1633C216.187 22.605 216.169 20.9468 216.169 19.3225V12.3012C216.169 12.1665 216.222 12.1153 216.328 12.1153L218.762 12.1665C219.811 12.1665 220.237 12.505 220.343 12.7248C220.45 12.9453 220.503 13.2325 220.503 13.3678C220.503 13.4863 220.538 13.5543 220.627 13.5543C220.716 13.5543 220.751 13.4697 220.769 13.3851C220.804 13.1819 220.84 12.437 220.857 12.2685C220.91 11.7941 221 11.5909 221 11.473C221 11.3884 220.965 11.2871 220.893 11.2871H220.894Z" fill="#2B2A29"/>
<path d="M114.272 9.58467V0H114.26H112.639V9.58467H112.652H114.272Z" fill="#2B2A29"/>
<path d="M121.54 12.3524V11.4576V11.4492L105.37 11.4576V12.3351V12.3524H121.54Z" fill="#2B2A29"/>
<path d="M114.238 13.9937L113.804 68.6474C113.804 68.8474 113.61 71.3543 113.456 71.3543C113.3 71.3543 113.126 68.8474 113.126 68.6474L112.673 13.9937H111.834L112.407 69.3743C112.407 70.1832 112.664 72.3465 113.455 72.3465C114.247 72.3465 114.503 70.1832 114.503 69.3743L115.076 13.9937H114.237H114.238Z" fill="#2B2A29"/>
</svg>
