<svg width="392" height="128" viewBox="0 0 392 128" fill="none" xmlns="http://www.w3.org/2000/svg">
<path d="M231.373 63.5139C231.637 63.5139 231.886 63.4799 232.122 63.4119C232.357 63.3449 232.566 63.2463 232.743 63.1136C232.92 62.9832 233.059 62.821 233.163 62.6293C233.268 62.4377 233.319 62.2165 233.319 61.967C233.319 61.6427 233.273 61.3682 233.184 61.1437C233.094 60.918 232.965 60.7343 232.795 60.5914C232.624 60.4496 232.419 60.3498 232.18 60.2875C231.942 60.2274 231.672 60.1967 231.374 60.1967H231.051V63.5128H231.374L231.373 63.5139ZM229.695 62.8369V58.0352L229.072 56.9839H234.299V59.1069H234.173L233.028 57.3468H231.048V59.8043H231.361C231.604 59.8043 231.858 59.81 232.121 59.8202C232.385 59.8293 232.647 59.8554 232.907 59.8951C233.169 59.9359 233.413 59.9983 233.648 60.0822C233.879 60.1672 234.086 60.2841 234.267 60.436C234.447 60.5869 234.59 60.7785 234.693 61.0065C234.798 61.2367 234.85 61.5168 234.85 61.8468C234.85 62.2358 234.737 62.5636 234.513 62.8255C234.285 63.0886 234.003 63.3007 233.659 63.464C233.314 63.6251 232.938 63.7396 232.528 63.8077C232.119 63.8746 231.729 63.9086 231.361 63.9086H229.07L229.694 62.838L229.695 62.8369Z" fill="#363636"/>
<path d="M237.74 62.4626L237.834 62.3912L238.864 62.8357C238.96 62.5397 239.039 62.2063 239.099 61.8343C239.158 61.4635 239.203 61.07 239.234 60.6526C239.264 60.2353 239.286 59.7998 239.295 59.3484C239.306 58.8982 239.312 58.4491 239.312 58.0034L238.48 56.9839H244.3L243.529 58.0556V62.8369L244.3 63.9086H241.239L242.176 62.8369V57.4387H239.822C239.822 58.0726 239.819 58.6816 239.818 59.2679C239.813 59.8531 239.796 60.3975 239.767 60.8953C239.734 61.3943 239.684 61.8389 239.615 62.229C239.546 62.6203 239.448 62.9446 239.323 63.1998C239.162 63.523 238.96 63.743 238.714 63.8576C238.467 63.9721 238.2 64.0288 237.908 64.0288L237.741 62.4626H237.74Z" fill="#363636"/>
<path d="M249.339 61.2902H251.672L250.485 58.5208L249.34 61.2902H249.339ZM252.495 63.2113L251.86 61.7449H249.154L248.591 63.1206L249.58 63.9099H247.279L248.019 63.1115L250.665 56.8843H251.152L253.964 63.2329L254.745 63.911H251.538L252.496 63.2136L252.495 63.2113Z" fill="#363636"/>
<path d="M258.489 62.8379V58.0362L257.865 56.9849H262.831V59.1986L262.746 59.2077L261.415 57.3478H259.843V62.8379L260.781 63.9084H257.719L258.489 62.8379Z" fill="#363636"/>
<path d="M268.99 57.2879C268.635 57.2879 268.352 57.3673 268.136 57.526C267.921 57.6825 267.753 57.8776 267.636 58.1067C267.519 58.3358 267.439 58.5773 267.398 58.8348C267.355 59.0911 267.335 59.3201 267.335 59.5231C267.335 60.0414 267.386 60.5472 267.492 61.0394C267.595 61.5305 267.748 61.9671 267.949 62.3481C268.15 62.7281 268.397 63.0343 268.688 63.2633C268.98 63.4924 269.31 63.607 269.677 63.607C269.99 63.607 270.255 63.5287 270.469 63.3688C270.683 63.21 270.856 63.015 270.984 62.7836C271.113 62.5489 271.205 62.3062 271.265 62.0499C271.324 61.7947 271.355 61.5656 271.355 61.3638C271.355 60.8443 271.3 60.3385 271.194 59.8464C271.086 59.3553 270.93 58.9198 270.729 58.5422C270.528 58.1656 270.278 57.8628 269.985 57.6326C269.69 57.4035 269.359 57.289 268.991 57.289L268.99 57.2879ZM272.81 60.1378C272.81 60.6436 272.727 61.1335 272.561 61.6053C272.393 62.076 272.148 62.4899 271.826 62.8471C271.503 63.2044 271.102 63.4913 270.62 63.7068C270.137 63.9211 269.575 64.03 268.938 64.03C268.458 64.03 268.028 63.9358 267.646 63.7476C267.265 63.5593 266.942 63.311 266.678 63.0048C266.413 62.6974 266.212 62.347 266.069 61.9535C265.927 61.5588 265.855 61.1562 265.855 60.7445C265.855 60.2387 265.939 59.7522 266.105 59.2793C266.272 58.8075 266.518 58.3925 266.839 58.0364C267.162 57.6803 267.566 57.3933 268.052 57.1779C268.538 56.9613 269.099 56.8535 269.729 56.8535C270.209 56.8535 270.639 56.9488 271.02 57.1359C271.402 57.3253 271.725 57.5737 271.99 57.8799C272.253 58.1872 272.457 58.5365 272.599 58.9312C272.74 59.3247 272.811 59.7284 272.811 60.1389L272.81 60.1378Z" fill="#363636"/>
<path d="M275.795 56.9839H282.073V59.1976L281.99 59.2078L280.648 57.3377H279.608V62.8369L280.377 63.9075H277.482L278.252 62.8369V57.3468H277.21L275.879 59.2078L275.795 59.1976V56.9839Z" fill="#363636"/>
<path d="M287.539 63.5149C287.804 63.5149 288.053 63.4831 288.288 63.4185C288.524 63.3539 288.731 63.2597 288.909 63.1361C289.085 63.0114 289.226 62.856 289.33 62.6711C289.433 62.4852 289.486 62.2719 289.486 62.0293C289.486 61.6936 289.43 61.4157 289.32 61.2014C289.209 60.9848 289.052 60.8124 288.85 60.6854C288.65 60.5572 288.41 60.4688 288.13 60.4177C287.855 60.3667 287.549 60.3406 287.215 60.3406V63.516H287.538L287.539 63.5149ZM287.216 60.0877C287.551 60.0877 287.842 60.0526 288.091 59.9822C288.341 59.9108 288.55 59.8144 288.716 59.693C288.882 59.5717 289.007 59.4277 289.091 59.2598C289.175 59.0909 289.216 58.9094 289.216 58.7143C289.216 58.4093 289.165 58.1666 289.059 57.9806C288.956 57.7946 288.823 57.6551 288.663 57.5564C288.503 57.4589 288.328 57.3943 288.131 57.3591C287.939 57.3251 287.75 57.3081 287.57 57.3081H287.216V60.0877ZM287.623 56.9849C288.059 56.9849 288.458 57.0087 288.821 57.0552C289.182 57.1028 289.49 57.1845 289.746 57.2967C290.003 57.4124 290.203 57.5678 290.345 57.7628C290.488 57.959 290.558 58.2074 290.558 58.5102C290.558 58.7382 290.507 58.94 290.406 59.1113C290.307 59.2836 290.18 59.4345 290.022 59.566C289.867 59.6976 289.691 59.8087 289.496 59.9006C289.303 59.9913 289.107 60.0741 288.914 60.1489C289.567 60.2896 290.081 60.513 290.454 60.8215C290.829 61.1277 291.017 61.5405 291.017 62.0587C291.017 62.4228 290.904 62.7244 290.679 62.9637C290.453 63.2042 290.168 63.3913 289.826 63.5296C289.481 63.668 289.104 63.7655 288.696 63.8234C288.287 63.8801 287.897 63.9096 287.529 63.9096H285.238L285.861 62.839V58.0373L285.238 56.986H287.623V56.9849Z" fill="#363636"/>
<path d="M297.212 57.2879C296.858 57.2879 296.573 57.3673 296.359 57.526C296.142 57.6825 295.976 57.8776 295.859 58.1067C295.742 58.3358 295.661 58.5773 295.618 58.8348C295.576 59.0911 295.557 59.3201 295.557 59.5231C295.557 60.0414 295.608 60.5472 295.712 61.0394C295.817 61.5305 295.97 61.9671 296.171 62.3481C296.371 62.7281 296.619 63.0343 296.91 63.2633C297.202 63.4924 297.532 63.607 297.899 63.607C298.212 63.607 298.476 63.5287 298.691 63.3688C298.905 63.21 299.077 63.015 299.205 62.7836C299.335 62.5489 299.427 62.3062 299.487 62.0499C299.546 61.7947 299.575 61.5656 299.575 61.3638C299.575 60.8443 299.52 60.3385 299.413 59.8464C299.305 59.3553 299.151 58.9198 298.949 58.5422C298.748 58.1656 298.499 57.8628 298.205 57.6326C297.91 57.4035 297.579 57.289 297.211 57.289L297.212 57.2879ZM301.032 60.1378C301.032 60.6436 300.948 61.1335 300.783 61.6053C300.616 62.076 300.371 62.4899 300.049 62.8471C299.726 63.2044 299.325 63.4913 298.841 63.7068C298.359 63.9211 297.798 64.03 297.161 64.03C296.681 64.03 296.251 63.9358 295.869 63.7476C295.488 63.5593 295.165 63.311 294.9 63.0048C294.636 62.6974 294.434 62.347 294.291 61.9535C294.15 61.5588 294.078 61.1562 294.078 60.7445C294.078 60.2387 294.162 59.7522 294.328 59.2793C294.494 58.8075 294.741 58.3925 295.061 58.0364C295.385 57.6803 295.788 57.3933 296.274 57.1779C296.759 56.9613 297.319 56.8535 297.95 56.8535C298.431 56.8535 298.86 56.9488 299.242 57.1359C299.624 57.3253 299.947 57.5737 300.21 57.8799C300.474 58.1872 300.679 58.5365 300.818 58.9312C300.961 59.3247 301.031 59.7284 301.031 60.1389L301.032 60.1378Z" fill="#363636"/>
<path d="M306.046 60.6335C306.615 60.6335 307.055 60.4974 307.37 60.2241C307.681 59.9508 307.838 59.5278 307.838 58.9551C307.838 58.3835 307.681 57.9616 307.364 57.6917C307.046 57.4218 306.607 57.288 306.046 57.288V60.6346V60.6335ZM304.692 62.837V58.0546L303.922 56.9829H306.42C306.589 56.9829 306.775 56.9886 306.984 57.0033C307.193 57.0169 307.404 57.0464 307.619 57.0895C307.833 57.1337 308.044 57.1961 308.25 57.2766C308.455 57.3572 308.635 57.4672 308.791 57.6055C308.947 57.7439 309.073 57.9129 309.169 58.1159C309.268 58.3177 309.316 58.5582 309.316 58.8337C309.316 59.1433 309.248 59.4212 309.108 59.6627C308.968 59.9054 308.791 60.1118 308.572 60.2842C308.353 60.4566 308.106 60.5938 307.826 60.6993C307.55 60.8036 307.274 60.8728 307.004 60.9057C306.837 60.934 306.666 60.9522 306.49 60.9613C306.313 60.9726 306.164 60.9783 306.046 60.9783V62.8382L306.984 63.9087H303.922L304.692 62.8382V62.837Z" fill="#363636"/>
<path d="M312.789 62.8379V58.0464L312.028 56.9849H314.923L314.143 58.0566V62.6961L317.505 56.9849H319.485L318.704 58.0566V62.8379L319.474 63.9084H316.579L317.35 62.8379V58.1972L313.987 63.9084H312.02L312.789 62.8379Z" fill="#363636"/>
<path d="M322.535 56.9839H328.815V59.1976L328.732 59.2078L327.389 57.3377H326.348V62.8369L327.117 63.9075H324.224L324.995 62.8369V57.3468H323.953L322.619 59.2078L322.535 59.1976V56.9839Z" fill="#363636"/>
<path d="M337.193 63.9096H331.977L332.6 62.839V58.0362L331.977 56.9849H336.996V59.1079H336.87L335.725 57.3478H333.955V60.1489H336.797V60.6037H333.955V63.5455H335.819L337.193 61.6947L337.307 61.7151L337.193 63.9096Z" fill="#363636"/>
<path d="M340.24 62.4636L340.334 62.3922L341.364 62.8367C341.462 62.5407 341.539 62.2073 341.6 61.8353C341.659 61.4645 341.703 61.071 341.735 60.6536C341.767 60.2363 341.786 59.8008 341.796 59.3494C341.807 58.8992 341.812 58.4501 341.812 58.0044L340.98 56.9849H346.801L346.029 58.0566V62.8379L346.801 63.9096H343.739L344.676 62.8379V57.4396H342.323C342.323 58.0736 342.32 58.6826 342.318 59.2689C342.313 59.8541 342.296 60.3984 342.267 60.8963C342.233 61.3953 342.183 61.8399 342.115 62.23C342.045 62.6212 341.947 62.9456 341.824 63.2008C341.663 63.524 341.46 63.744 341.213 63.8585C340.966 63.9731 340.699 64.0298 340.407 64.0298L340.24 62.4636Z" fill="#363636"/>
<path d="M352.351 63.5141C352.615 63.5141 352.865 63.4778 353.102 63.4029C353.337 63.3292 353.545 63.2226 353.721 63.0843C353.899 62.9448 354.039 62.7747 354.142 62.5739C354.247 62.3709 354.298 62.1418 354.298 61.8855C354.298 61.5623 354.249 61.289 354.154 61.0667C354.057 60.8445 353.922 60.6653 353.748 60.5258C353.575 60.3874 353.368 60.2888 353.127 60.2287C352.889 60.1685 352.63 60.1379 352.352 60.1379H352.029V63.5141H352.352H352.351ZM350.675 62.837V58.0455L349.916 56.9829H352.809L352.029 58.0546V59.7433H352.341C352.563 59.7433 352.805 59.7512 353.064 59.7682C353.326 59.7841 353.584 59.8215 353.84 59.8782C354.096 59.9372 354.344 60.0132 354.585 60.1118C354.826 60.2105 355.035 60.3409 355.22 60.5054C355.405 60.6709 355.553 60.8717 355.664 61.1076C355.775 61.3435 355.829 61.6224 355.829 61.9468C355.829 62.3448 355.717 62.6692 355.491 62.9221C355.267 63.1739 354.981 63.3757 354.638 63.522C354.294 63.6706 353.918 63.7715 353.508 63.826C353.098 63.8804 352.709 63.9065 352.341 63.9065H350.051L350.675 62.8359V62.837Z" fill="#363636"/>
<path d="M365.831 63.9086H362.937L363.708 62.838V60.5415H360.572V62.838L361.344 63.9086H358.449L359.221 62.838V58.0465L358.46 56.9839H361.355L360.572 58.0556V60.0879H363.708V58.0465L362.946 56.9839H365.842L365.062 58.0556V62.838L365.831 63.9086Z" fill="#363636"/>
<path d="M375.307 63.9096L376.077 62.839V58.0566L375.307 56.9849H378.202L377.429 58.0566V62.839L378.202 63.9096H375.307ZM371.392 63.516C371.656 63.516 371.906 63.4797 372.143 63.4049C372.379 63.3312 372.585 63.2246 372.761 63.0862C372.939 62.9467 373.08 62.7766 373.183 62.5759C373.287 62.3729 373.339 62.1438 373.339 61.8875C373.339 61.5643 373.29 61.291 373.194 61.0687C373.098 60.8464 372.963 60.6672 372.788 60.5277C372.615 60.3894 372.407 60.2907 372.167 60.2306C371.928 60.1705 371.67 60.1399 371.392 60.1399H371.069V63.516H371.392ZM369.716 62.839V58.0475L368.957 56.9849H371.851L371.07 58.0566V59.7452H371.382C371.605 59.7452 371.845 59.7532 372.105 59.7702C372.366 59.786 372.625 59.8235 372.881 59.8802C373.137 59.9391 373.386 60.0151 373.626 60.1138C373.865 60.2125 374.076 60.3429 374.26 60.5073C374.445 60.6729 374.591 60.8736 374.704 61.1095C374.814 61.3454 374.869 61.6244 374.869 61.9487C374.869 62.3468 374.757 62.6711 374.532 62.924C374.307 63.1758 374.021 63.3777 373.677 63.524C373.334 63.6725 372.958 63.7735 372.548 63.8279C372.139 63.8823 371.75 63.9084 371.382 63.9084H369.091L369.716 62.8379V62.839Z" fill="#363636"/>
<path d="M385.145 56.4781C384.493 56.4781 383.99 56.3545 383.64 56.1084C383.29 55.8634 383.114 55.4971 383.114 55.0117H384.312C384.312 55.3701 384.384 55.6389 384.529 55.8215C384.676 56.0029 384.881 56.0936 385.145 56.0936C385.409 56.0936 385.612 56.0029 385.759 55.8215C385.905 55.6389 385.978 55.3701 385.978 55.0117H387.174C387.174 55.4971 387.001 55.8634 386.65 56.1084C386.3 56.3545 385.797 56.4781 385.145 56.4781ZM382.084 62.8369V58.0465L381.323 56.9839H384.219L383.437 58.0556V62.6963L386.801 56.9839H388.781L388 58.0556V62.838L388.77 63.9097H385.874L386.647 62.838V58.1985L383.283 63.9097H381.317L382.087 62.838L382.084 62.8369Z" fill="#363636"/>
<path d="M233.89 78.1028C234.043 78.1776 234.22 78.2139 234.422 78.2139C234.776 78.2139 235.057 78.1266 235.263 77.9497C235.473 77.7762 235.634 77.5686 235.748 77.3282C235.864 77.09 235.938 76.8462 235.972 76.6001C236.006 76.3552 236.024 76.1635 236.024 76.0297C236.024 75.3027 235.855 74.7504 235.515 74.3773C235.175 74.0031 234.633 73.8171 233.89 73.8171V78.1028ZM232.579 73.9067C232.427 73.8318 232.249 73.7944 232.047 73.7944C231.693 73.7944 231.412 73.884 231.206 74.0586C230.996 74.2333 230.835 74.4408 230.721 74.6813C230.606 74.9194 230.531 75.1621 230.497 75.4093C230.462 75.6543 230.445 75.8448 230.445 75.9786C230.445 76.7067 230.615 77.259 230.955 77.6321C231.294 78.0064 231.836 78.1924 232.579 78.1924V73.9067ZM232.579 78.6993V78.5768C232.503 78.5904 232.419 78.6006 232.328 78.6074C232.239 78.6142 232.145 78.6176 232.047 78.6176C231.569 78.6176 231.138 78.5405 230.757 78.3897C230.375 78.2377 230.052 78.0415 229.789 77.8034C229.525 77.563 229.322 77.2942 229.18 76.9948C229.037 76.6954 228.967 76.3926 228.967 76.0898C228.967 75.7189 229.035 75.3685 229.174 75.0385C229.313 74.7073 229.519 74.4181 229.795 74.1709C230.069 73.9214 230.414 73.7241 230.829 73.5789C231.248 73.4326 231.732 73.3623 232.288 73.3623H232.438C232.484 73.3623 232.529 73.3646 232.579 73.3703V73.309L231.809 72.2373H234.661L233.89 73.309V73.4315C233.966 73.4179 234.05 73.4077 234.141 73.3997C234.23 73.3941 234.325 73.3895 234.422 73.3895C234.9 73.3895 235.331 73.4667 235.712 73.6175C236.095 73.7683 236.417 73.9656 236.681 74.2027C236.945 74.4431 237.147 74.713 237.291 75.0124C237.433 75.3118 237.504 75.6135 237.504 75.9174C237.504 76.2882 237.436 76.6387 237.3 76.9687C237.165 77.2987 236.958 77.5879 236.681 77.8363C236.403 78.0869 236.056 78.2842 235.64 78.4271C235.223 78.5734 234.737 78.646 234.181 78.646H234.031C233.985 78.646 233.94 78.6426 233.89 78.6358V78.697L234.661 79.7676H231.809L232.579 78.697V78.6993Z" fill="#363636"/>
<path d="M243.721 72.8463C243.368 72.8463 243.083 72.9257 242.867 73.0845C242.652 73.241 242.485 73.436 242.367 73.6651C242.25 73.8942 242.17 74.138 242.129 74.3932C242.086 74.6506 242.067 74.8786 242.067 75.0816C242.067 75.5998 242.118 76.1056 242.223 76.5978C242.326 77.09 242.48 77.5255 242.68 77.9066C242.881 78.2865 243.128 78.5916 243.42 78.8206C243.711 79.0497 244.042 79.1643 244.409 79.1643C244.722 79.1643 244.986 79.086 245.2 78.9261C245.415 78.7673 245.587 78.5723 245.715 78.3409C245.844 78.1073 245.937 77.8635 245.996 77.6072C246.055 77.352 246.086 77.1229 246.086 76.9211C246.086 76.4016 246.031 75.897 245.925 75.4048C245.817 74.9126 245.662 74.4782 245.46 74.0995C245.259 73.7229 245.011 73.4201 244.716 73.1899C244.421 72.9608 244.09 72.8463 243.723 72.8463H243.721ZM247.541 75.6974C247.541 76.202 247.458 76.6908 247.293 77.1637C247.125 77.6344 246.881 78.0483 246.559 78.4056C246.234 78.7628 245.834 79.0497 245.351 79.2652C244.868 79.4795 244.308 79.5884 243.669 79.5884C243.189 79.5884 242.76 79.4943 242.379 79.306C241.996 79.1178 241.672 78.8694 241.409 78.5632C241.145 78.2559 240.943 77.9066 240.801 77.513C240.658 77.1172 240.588 76.7158 240.588 76.303C240.588 75.7983 240.672 75.3107 240.837 74.8378C241.004 74.366 241.25 73.952 241.571 73.5948C241.896 73.2387 242.299 72.9518 242.785 72.7363C243.271 72.5208 243.831 72.4131 244.462 72.4131C244.942 72.4131 245.371 72.5072 245.752 72.6943C246.135 72.8849 246.459 73.1321 246.722 73.4383C246.986 73.7456 247.189 74.0949 247.33 74.4896C247.472 74.8831 247.542 75.2868 247.542 75.6985L247.541 75.6974Z" fill="#363636"/>
<path d="M257.757 79.468H254.864L255.634 78.3974V76.102H252.499V78.3974L253.27 79.468H250.375L251.146 78.3974V73.6059L250.384 72.5444H253.281L252.499 73.615V75.6484H255.634V73.6059L254.873 72.5444H257.768L256.987 73.615V78.3974L257.757 79.468Z" fill="#363636"/>
<path d="M265.294 79.0124V72.9972H262.941C262.941 73.8399 262.926 74.5884 262.899 75.2416C262.87 75.8948 262.825 76.4675 262.762 76.9552C262.7 77.444 262.623 77.8556 262.533 78.1936C262.443 78.5316 262.336 78.8026 262.211 79.0124H265.294ZM260.712 81.3169V79.0124H261.723C261.987 78.5679 262.17 77.8863 262.274 76.9711C262.379 76.0536 262.43 74.9184 262.43 73.5643L261.598 72.5425H267.417L266.647 73.6142V79.0124H267.688V81.3169L267.604 81.3271L266.271 79.4683H262.129L260.795 81.3271L260.711 81.3169H260.712Z" fill="#363636"/>
<path d="M14.235 32.9619H8.23343C8.1393 32.9619 8.07579 32.9018 8.1393 32.7521L10.9042 24.6695C10.9666 24.4608 11.0618 24.3406 11.1242 24.3406C11.2183 24.3406 11.2807 24.4302 11.3771 24.6695L14.362 32.7521C14.3938 32.8723 14.3938 32.9619 14.235 32.9619ZM23.632 42.4507C23.3178 42.4507 22.8461 42.4213 22.3754 42.2716C21.7154 42.0912 20.8047 41.6127 19.6718 38.9487C17.7552 34.3988 12.8208 22.0361 12.3501 20.8987C11.9736 19.9721 11.8466 19.8213 11.6583 19.8213C11.4701 19.8213 11.3442 20.0005 10.9677 20.9883L3.83433 39.577C3.26842 41.0751 2.64014 42.2126 1.19419 42.3918C0.943555 42.4224 0.503532 42.4519 0.28352 42.4519C0.127017 42.4519 0 42.512 0 42.6322C0 42.8114 0.188257 42.8715 0.598795 42.8715C2.07537 42.8715 3.80371 42.7819 4.1496 42.7819C4.49436 42.7819 5.84505 42.8715 6.59922 42.8715C6.8816 42.8715 7.07213 42.8114 7.07213 42.6322C7.07213 42.512 6.978 42.4519 6.75685 42.4519H6.44271C5.90856 42.4519 5.24853 42.1831 5.24853 41.5832C5.24853 41.0445 5.40503 40.3266 5.68855 39.577L7.57453 34.2797C7.63577 34.13 7.73103 34.0393 7.88753 34.0393H14.6444C14.802 34.0393 14.8655 34.0994 14.9279 34.2196L17.8504 41.582C17.9128 41.7022 17.9128 41.8814 17.9128 41.971C17.9128 42.2398 17.7245 42.3906 17.661 42.3906C17.5669 42.3906 17.4422 42.4802 17.4422 42.6004C17.4422 42.7808 17.7869 42.7808 18.3834 42.8102C20.5529 42.8703 22.8461 42.8703 23.3178 42.8703C23.6637 42.8703 23.9461 42.8102 23.9461 42.6311C23.9461 42.4814 23.8202 42.4507 23.632 42.4507Z" fill="#363636"/>
<path d="M46.5455 21.2563C45.0995 21.2563 43.2771 21.3459 42.5853 21.3459C42.3346 21.3459 40.4487 21.2563 39.0345 21.2563C38.6897 21.2563 38.5332 21.3165 38.5332 21.4968C38.5332 21.6159 38.658 21.676 38.7838 21.676C39.0651 21.676 39.6004 21.7066 39.8521 21.7656C40.8887 21.9754 41.1405 22.4539 41.2028 23.4712C41.2652 24.4284 41.2652 25.2676 41.2652 29.9377V35.2055C41.2652 38.0793 41.2652 40.4439 41.1087 41.7016C40.9828 42.5691 40.8263 43.228 40.198 43.3482C39.9157 43.4084 39.538 43.4685 39.2545 43.4685C39.0662 43.4685 39.0038 43.5581 39.0038 43.6476C39.0038 43.8268 39.1615 43.8858 39.5062 43.8858C40.4498 43.8858 42.4299 43.7962 42.524 43.7962C42.6805 43.7962 44.6606 43.8858 46.3901 43.8858C46.736 43.8858 46.8925 43.7962 46.8925 43.6476C46.8925 43.5569 46.8301 43.4685 46.6396 43.4685C46.3584 43.4685 45.6654 43.4084 45.2254 43.3482C44.283 43.228 44.0947 42.5703 44.0006 41.7016C43.843 40.445 43.843 38.0793 43.843 35.2055V22.903C43.843 22.6036 43.9053 22.3938 44.0936 22.3349C44.3771 22.2158 44.9101 22.1545 45.4443 22.1545C46.1678 22.1545 48.0844 22.0355 49.7504 23.6527C51.4164 25.2687 51.5094 27.2749 51.5094 28.2604C51.5094 31.0151 49.121 33.1415 46.0726 33.1415C45.4137 33.1415 45.2243 33.171 45.2243 33.4103C45.2243 33.56 45.4137 33.6201 45.5713 33.6201C45.7278 33.6496 46.0726 33.6496 46.2313 33.6496C50.6928 33.6496 53.9624 30.7758 53.9624 26.5253C53.9624 24.9398 53.0823 23.5914 52.3917 22.9631C51.8881 22.514 50.4739 21.2575 46.5466 21.2575L46.5455 21.2563Z" fill="#363636"/>
<path d="M92.2989 42.4501C92.1106 42.4501 91.64 42.39 91.1988 42.2709C90.287 42.0021 89.8481 41.5519 89.3446 40.9225C88.6845 40.115 83.3113 31.4041 82.7136 30.4764L87.7739 23.2331C88.6845 21.9459 89.2833 21.0772 90.1929 20.8073C90.5388 20.6893 91.0105 20.6587 91.2294 20.6587C91.4494 20.6587 91.5753 20.568 91.5753 20.4489C91.5753 20.3287 91.4177 20.2379 91.0741 20.2379C90.0046 20.2379 88.7163 20.3275 88.4339 20.3275C88.1515 20.3275 86.8315 20.2379 85.6373 20.2379C85.2608 20.2379 85.102 20.3275 85.102 20.4489C85.102 20.5986 85.1961 20.6587 85.3844 20.6587C85.5738 20.6587 86.0138 20.6587 86.3268 20.7483C86.6421 20.8379 86.8621 21.0783 86.8621 21.287C86.8621 21.6465 86.7668 21.9164 86.5468 22.3644C86.2338 22.9926 82.8701 28.1107 81.9277 29.3991C80.2923 26.8258 79.0052 24.6098 77.6851 22.2441C77.4968 21.9164 77.371 21.5558 77.371 21.2575C77.371 21.0466 77.4651 20.8379 77.7475 20.7472C78.0004 20.6576 78.4086 20.6576 78.5958 20.6576C78.7851 20.6576 78.8781 20.5975 78.8781 20.4478C78.8781 20.2981 78.7852 20.2368 78.344 20.2368C77.2757 20.2368 75.6732 20.3264 75.3897 20.3264C75.1391 20.3264 72.5919 20.2368 71.713 20.2368C71.3059 20.2368 71.18 20.2981 71.18 20.4478C71.18 20.5668 71.273 20.6576 71.4613 20.6576C71.6495 20.6576 72.2789 20.7177 72.7813 20.8674C73.8485 21.2269 74.5097 22.0933 75.2321 23.2614L80.2595 31.3134L74.572 39.8746C73.5344 41.4022 72.9061 42.0611 71.9625 42.2992C71.4907 42.4194 71.0201 42.4489 70.7683 42.4489C70.6107 42.4489 70.5177 42.5385 70.5177 42.6587C70.5177 42.7778 70.5801 42.8685 70.8318 42.8685C71.8684 42.8685 73.4085 42.7778 73.6909 42.7778C73.9744 42.7778 75.9545 42.8685 76.7087 42.8685C76.9287 42.8685 77.0852 42.8084 77.0852 42.6587C77.0852 42.5396 76.991 42.4489 76.8345 42.4489C76.6769 42.4489 76.4263 42.4194 76.2357 42.3888C75.9545 42.3287 75.7345 42.12 75.7345 41.8195C75.7345 41.5201 75.8604 40.9814 76.1427 40.5028L81.0442 32.5699C82.9302 35.5934 84.7527 38.5568 86.4504 41.4895C86.7317 41.9681 86.4504 42.2686 86.2916 42.3287C86.1658 42.3593 86.1034 42.4489 86.1034 42.568C86.1034 42.7177 86.2599 42.7483 87.0776 42.8084C88.6811 42.839 90.1895 42.8685 92.1061 42.8685C92.3885 42.8685 92.5461 42.7778 92.5461 42.6292C92.5461 42.509 92.4531 42.4489 92.2955 42.4489L92.2989 42.4501Z" fill="#363636"/>
<path d="M133.689 42.4489C133.406 42.4489 132.715 42.3888 132.275 42.3287C131.333 42.2085 131.145 41.5507 131.05 40.682C130.893 39.4255 130.893 37.0586 130.893 34.186V28.9182V20.6564C131.05 19.6686 130.547 19.5484 130.139 20.1767C123.696 28.1096 119.297 33.1086 114.835 38.0475C114.708 38.1972 114.552 38.1678 114.552 37.9285C114.552 28.0495 114.552 23.41 114.615 22.4528C114.677 21.4049 114.928 20.8957 115.777 20.746C116.153 20.687 116.344 20.6564 116.563 20.6564C116.688 20.6564 116.815 20.5963 116.815 20.4761C116.815 20.2969 116.659 20.2357 116.312 20.2357C115.369 20.2357 113.389 20.3253 113.233 20.3253C113.074 20.3253 111.096 20.2357 109.681 20.2357C109.336 20.2357 109.18 20.2969 109.18 20.4761C109.18 20.5963 109.304 20.6564 109.431 20.6564C109.713 20.6564 110.247 20.687 110.499 20.746C111.536 20.9558 111.788 21.4355 111.849 22.4528C111.914 23.41 111.849 24.2492 111.914 28.9182V42.6871C111.756 43.6749 112.26 43.7939 112.668 43.1656L113.046 42.6871L115.653 39.4844C119.55 34.6351 123.668 29.9355 127.815 25.3254C128.098 24.9965 128.255 25.1757 128.255 25.5364V34.186C128.255 37.0586 128.255 39.4243 128.098 40.682C127.971 41.5496 127.815 42.2085 127.187 42.3287C126.904 42.3888 126.527 42.4489 126.244 42.4489C126.056 42.4489 125.992 42.5385 125.992 42.6292C125.992 42.8084 126.149 42.8685 126.495 42.8685C127.437 42.8685 129.417 42.7778 129.574 42.7778C129.733 42.7778 131.712 42.8685 133.44 42.8685C133.785 42.8685 133.942 42.7778 133.942 42.6292C133.942 42.5396 133.88 42.4489 133.692 42.4489H133.689Z" fill="#363636"/>
<path d="M173.444 37.4498C173.256 37.4498 173.192 37.57 173.13 37.8989C173.036 38.4375 172.627 39.7553 171.966 40.4131C170.711 41.6402 168.856 41.909 166.499 41.909C159.774 41.909 155.154 36.6718 155.154 30.9537C155.154 25.6565 157.134 20.9557 165.211 20.9557C169.138 20.9557 172.816 22.2134 172.816 25.7154C172.816 26.1339 172.847 26.3437 173.068 26.3437C173.318 26.3437 173.38 25.8946 173.38 24.4589C173.38 22.7226 173.602 21.2857 173.602 20.9557C173.602 20.7765 173.539 20.6268 173.193 20.6268C171.999 20.6268 169.171 19.8193 165.432 19.8193C155.439 19.8193 152.326 26.4038 152.326 31.193C152.326 38.1075 156.915 43.2857 166.5 43.2857C168.512 43.2857 170.9 43.0759 172.156 42.5973C172.723 42.3581 172.785 42.298 172.973 41.7298C173.288 40.7125 173.665 38.1075 173.665 37.8989C173.665 37.6584 173.603 37.4498 173.445 37.4498H173.444Z" fill="#363636"/>
<path d="M235.857 20.2388C234.411 20.2388 232.589 20.3284 231.897 20.3284C231.645 20.3284 229.76 20.2388 228.345 20.2388C227.999 20.2388 227.844 20.2989 227.844 20.4792C227.844 20.5983 227.969 20.6584 228.096 20.6584C228.377 20.6584 228.911 20.689 229.163 20.748C230.2 20.9578 230.452 21.4375 230.513 22.4536C230.578 23.4119 230.578 24.25 230.578 28.9202V34.1868C230.578 37.0606 230.578 39.4251 230.42 40.684C230.293 41.5516 230.138 42.2105 229.51 42.3295C229.227 42.3896 228.85 42.4497 228.566 42.4497C228.378 42.4497 228.314 42.5393 228.314 42.6289C228.314 42.8092 228.471 42.8671 228.817 42.8671C229.76 42.8671 231.739 42.7775 231.835 42.7775C231.993 42.7775 233.971 42.8671 235.701 42.8671C236.047 42.8671 236.202 42.7775 236.202 42.6289C236.202 42.5382 236.141 42.4497 235.95 42.4497C235.669 42.4497 234.976 42.3896 234.536 42.3295C233.594 42.2105 233.405 41.5516 233.31 40.684C233.154 39.4263 233.154 37.0606 233.154 34.1868V21.8843C233.154 21.5861 233.216 21.3751 233.405 21.3161C233.689 21.1971 234.222 21.1358 234.756 21.1358C235.48 21.1358 237.396 21.0167 239.063 22.6339C240.727 24.25 240.822 26.2562 240.822 27.244C240.822 29.9975 238.434 32.1228 235.387 32.1228C234.727 32.1228 234.537 32.1523 234.537 32.3916C234.537 32.5413 234.726 32.6014 234.883 32.6014C235.042 32.632 235.387 32.632 235.544 32.632C240.006 32.632 243.274 29.7582 243.274 25.5066C243.274 23.9211 242.394 22.5727 241.703 21.9444C241.201 21.4965 239.787 20.2388 235.859 20.2388H235.857Z" fill="#363636"/>
<path d="M272.373 32.9599H266.372C266.278 32.9599 266.215 32.8998 266.278 32.7501L269.043 24.6675C269.105 24.4589 269.199 24.3386 269.263 24.3386C269.357 24.3386 269.421 24.4282 269.516 24.6675L272.499 32.7501C272.531 32.8703 272.531 32.9599 272.373 32.9599ZM281.772 42.4488C281.456 42.4488 280.986 42.4193 280.513 42.2696C279.854 42.0893 278.942 41.6107 277.81 38.9467C275.894 34.3968 270.959 22.0342 270.489 20.8967C270.113 19.9702 269.986 19.8193 269.798 19.8193C269.61 19.8193 269.484 19.9985 269.107 20.9863L261.973 39.575C261.408 41.0731 260.78 42.2106 259.335 42.3898C259.083 42.4204 258.644 42.4499 258.424 42.4499C258.268 42.4499 258.141 42.51 258.141 42.6302C258.141 42.8094 258.329 42.8695 258.738 42.8695C260.215 42.8695 261.943 42.7799 262.289 42.7799C262.635 42.7799 263.986 42.8695 264.74 42.8695C265.022 42.8695 265.212 42.8094 265.212 42.6302C265.212 42.51 265.119 42.4499 264.898 42.4499H264.585C264.05 42.4499 263.389 42.1811 263.389 41.5812C263.389 41.0425 263.546 40.3247 263.829 39.575L265.715 34.2777C265.777 34.128 265.872 34.0373 266.028 34.0373H272.786C272.943 34.0373 273.006 34.0974 273.069 34.2176L275.991 41.5801C276.054 41.7003 276.054 41.8795 276.054 41.9691C276.054 42.2378 275.865 42.3887 275.803 42.3887C275.709 42.3887 275.583 42.4783 275.583 42.5985C275.583 42.7788 275.93 42.7788 276.526 42.8083C278.694 42.8684 280.989 42.8684 281.46 42.8684C281.806 42.8684 282.087 42.8083 282.087 42.6291C282.087 42.4794 281.962 42.4488 281.775 42.4488H281.772Z" fill="#363636"/>
<path d="M315.367 20.0291C315.116 20.0291 314.267 20.3285 312.255 20.3285H300.471C300.094 20.3285 298.9 20.2684 297.987 20.1788C297.139 20.1176 296.826 19.8193 296.605 19.8193C296.48 19.8193 296.353 20.2083 296.292 20.3875C296.229 20.6279 295.6 23.2012 295.6 23.5006C295.6 23.6809 295.664 23.7693 295.756 23.7693C295.883 23.7693 295.977 23.7092 296.071 23.4711C296.166 23.2601 296.261 23.0515 296.606 22.5434C297.108 21.8244 297.863 21.6157 299.811 21.5851L304.463 21.525V34.187C304.463 37.0608 304.463 39.4253 304.304 40.683C304.178 41.5517 304.023 42.2106 303.393 42.3297C303.112 42.3898 302.733 42.4488 302.451 42.4488C302.262 42.4488 302.199 42.5384 302.199 42.6291C302.199 42.8094 302.355 42.8673 302.701 42.8673C303.645 42.8673 305.624 42.7777 305.782 42.7777C305.938 42.7777 307.919 42.8673 309.646 42.8673C309.993 42.8673 310.15 42.7777 310.15 42.6291C310.15 42.5384 310.086 42.4488 309.897 42.4488C309.615 42.4488 308.924 42.3887 308.483 42.3297C307.54 42.2106 307.353 41.5517 307.258 40.683C307.102 39.4265 307.102 37.0608 307.102 34.187V21.525L311.062 21.5851C314.08 21.6452 314.802 22.3336 314.927 23.2318L314.957 23.5618C314.99 23.9803 315.051 24.0699 315.21 24.0699C315.335 24.0699 315.43 23.9508 315.43 23.682C315.43 23.352 315.523 21.2868 315.523 20.3886C315.523 20.2083 315.523 20.0291 315.367 20.0291Z" fill="#363636"/>
<path d="M357.731 42.4489C357.446 42.4489 356.756 42.3888 356.315 42.3287C355.374 42.2085 355.186 41.5507 355.09 40.682C354.934 39.4255 354.934 37.0586 354.934 34.186V28.9182V20.6564C355.09 19.6686 354.588 19.5484 354.179 20.1767C347.736 28.1096 343.337 33.1086 338.874 38.0475C338.748 38.1972 338.592 38.1678 338.592 37.9285C338.592 28.0495 338.592 23.41 338.654 22.4528C338.717 21.4049 338.968 20.8957 339.817 20.746C340.193 20.687 340.383 20.6564 340.603 20.6564C340.728 20.6564 340.855 20.5963 340.855 20.4761C340.855 20.2969 340.697 20.2357 340.352 20.2357C339.409 20.2357 337.429 20.3253 337.273 20.3253C337.115 20.3253 335.135 20.2357 333.722 20.2357C333.376 20.2357 333.221 20.2969 333.221 20.4761C333.221 20.5963 333.346 20.6564 333.473 20.6564C333.754 20.6564 334.288 20.687 334.54 20.746C335.577 20.9558 335.829 21.4355 335.89 22.4528C335.953 23.41 335.89 24.2492 335.953 28.9182V42.6871C335.796 43.6749 336.299 43.7939 336.708 43.1656L337.085 42.6871L339.693 39.4844C343.589 34.6351 347.708 29.9355 351.855 25.3254C352.137 24.9965 352.295 25.1757 352.295 25.5364V34.186C352.295 37.0586 352.295 39.4243 352.138 40.682C352.013 41.5496 351.856 42.2085 351.227 42.3287C350.944 42.3888 350.567 42.4489 350.284 42.4489C350.096 42.4489 350.031 42.5385 350.031 42.6292C350.031 42.8084 350.19 42.8685 350.535 42.8685C351.477 42.8685 353.457 42.7778 353.614 42.7778C353.773 42.7778 355.75 42.8685 357.48 42.8685C357.826 42.8685 357.982 42.7778 357.982 42.6292C357.982 42.5396 357.92 42.4489 357.732 42.4489H357.731Z" fill="#363636"/>
<path d="M390.822 19.9692C390.698 19.9692 390.571 20.0883 390.382 20.1484C390.258 20.179 389.502 20.238 389 20.2686C388.56 20.2981 381.898 20.3287 381.269 20.3287C381.112 20.3287 379.132 20.238 377.718 20.238C377.372 20.238 377.217 20.2981 377.217 20.4784C377.217 20.5975 377.342 20.6576 377.468 20.6576C377.75 20.6576 378.284 20.6882 378.536 20.7484C379.572 20.9582 379.761 21.4073 379.856 22.1251C379.918 22.6332 379.95 23.8909 379.95 28.9194V34.1872C379.95 37.8389 379.888 40.2636 379.729 41.0427C379.542 41.9103 379.384 42.1791 378.883 42.3288C378.599 42.4184 378.222 42.4479 377.938 42.4479C377.751 42.4479 377.688 42.5386 377.688 42.6282C377.688 42.8085 377.844 42.8663 378.19 42.8663C379.134 42.8663 380.988 42.7767 381.144 42.7767C381.301 42.7767 383.282 42.8663 385.01 42.8663C385.355 42.8663 385.514 42.7767 385.514 42.6282C385.514 42.5386 385.45 42.4479 385.261 42.4479C384.979 42.4479 384.287 42.3877 383.847 42.3288C383.156 42.2392 382.777 41.8196 382.651 40.9815C382.495 39.9937 382.464 37.0598 382.464 34.1861V21.7634C382.464 21.5252 382.557 21.4345 382.746 21.4345L387.052 21.5252C388.907 21.5252 389.661 22.124 389.848 22.513C390.038 22.9031 390.132 23.4112 390.132 23.6505C390.132 23.8603 390.193 23.9805 390.351 23.9805C390.508 23.9805 390.571 23.8308 390.601 23.6811C390.665 23.3216 390.728 22.0038 390.758 21.7055C390.852 20.8663 391.011 20.5068 391.011 20.2981C391.011 20.1484 390.948 19.9692 390.821 19.9692H390.822Z" fill="#363636"/>
<path d="M202.177 16.9579V0H202.155H199.287V16.9579H199.311H202.177Z" fill="#363636"/>
<path d="M215.034 21.8557V20.2726V20.2578L186.426 20.2726V21.8251V21.8557H215.034Z" fill="#363636"/>
<path d="M202.117 24.7578L201.35 121.455C201.35 121.809 201.007 126.244 200.734 126.244C200.458 126.244 200.151 121.809 200.151 121.455L199.348 24.7578H197.863L198.877 122.741C198.877 124.172 199.332 128 200.731 128C202.133 128 202.586 124.172 202.586 122.741L203.601 24.7578H202.116H202.117Z" fill="#363636"/>
</svg>
