<svg width="328" height="108" viewBox="0 0 328 108" fill="none" xmlns="http://www.w3.org/2000/svg">
<path d="M193.991 53.2529C194.213 53.2529 194.422 53.2244 194.62 53.1673C194.817 53.1112 194.991 53.0285 195.14 52.9173C195.288 52.8079 195.405 52.6719 195.493 52.5112C195.58 52.3505 195.623 52.1651 195.623 51.9559C195.623 51.684 195.585 51.4539 195.51 51.2656C195.435 51.0764 195.326 50.9223 195.184 50.8025C195.04 50.6837 194.869 50.6 194.668 50.5477C194.469 50.4973 194.242 50.4716 193.992 50.4716H193.721V53.252H193.992L193.991 53.2529ZM192.585 52.6852V48.6593L192.062 47.7778H196.444V49.5578H196.339L195.379 48.0821H193.719V50.1426H193.982C194.185 50.1426 194.398 50.1474 194.619 50.1559C194.84 50.1635 195.06 50.1854 195.278 50.2187C195.497 50.2529 195.702 50.3052 195.899 50.3756C196.093 50.4469 196.267 50.5448 196.418 50.6723C196.569 50.7987 196.689 50.9594 196.775 51.1505C196.863 51.3436 196.907 51.5784 196.907 51.8551C196.907 52.1813 196.812 52.4561 196.624 52.6757C196.433 52.8963 196.196 53.0741 195.908 53.2111C195.619 53.3461 195.303 53.4421 194.96 53.4992C194.617 53.5553 194.29 53.5838 193.982 53.5838H192.061L192.584 52.6862L192.585 52.6852Z" fill="#363636"/>
<path d="M199.333 52.3715L199.412 52.3116L200.276 52.6843C200.356 52.4361 200.422 52.1566 200.472 51.8447C200.522 51.5337 200.56 51.2038 200.586 50.8539C200.611 50.504 200.629 50.1388 200.637 49.7604C200.646 49.3829 200.651 49.0063 200.651 48.6327L199.953 47.7778H204.833L204.186 48.6764V52.6852L204.833 53.5838H202.267L203.052 52.6852V48.1591H201.079C201.079 48.6907 201.076 49.2013 201.075 49.6929C201.071 50.1835 201.057 50.6399 201.032 51.0574C201.005 51.4757 200.963 51.8485 200.905 52.1756C200.847 52.5036 200.765 52.7756 200.661 52.9895C200.526 53.2605 200.356 53.445 200.15 53.541C199.943 53.6371 199.718 53.6846 199.474 53.6846L199.334 52.3715H199.333Z" fill="#363636"/>
<path d="M209.055 51.3887H211.011L210.016 49.0667L209.056 51.3887H209.055ZM211.701 52.9994L211.169 51.77H208.9L208.428 52.9234L209.257 53.5852H207.328L207.948 52.9158L210.166 47.6946H210.575L212.932 53.0175L213.588 53.5861H210.899L211.702 53.0014L211.701 52.9994Z" fill="#363636"/>
<path d="M216.729 52.686V48.66L216.206 47.7786H220.37V49.6346L220.298 49.6423L219.182 48.0828H217.864V52.686L218.651 53.5836H216.083L216.729 52.686Z" fill="#363636"/>
<path d="M225.536 48.0326C225.238 48.0326 225 48.0992 224.82 48.2323C224.639 48.3635 224.498 48.5271 224.4 48.7192C224.303 48.9112 224.235 49.1138 224.201 49.3296C224.165 49.5445 224.149 49.7366 224.149 49.9068C224.149 50.3413 224.191 50.7654 224.28 51.1781C224.366 51.5898 224.495 51.9559 224.663 52.2754C224.831 52.5939 225.039 52.8507 225.283 53.0427C225.527 53.2348 225.804 53.3308 226.112 53.3308C226.374 53.3308 226.596 53.2652 226.776 53.1312C226.955 52.998 227.1 52.8345 227.207 52.6405C227.316 52.4437 227.393 52.2402 227.443 52.0253C227.493 51.8114 227.518 51.6193 227.518 51.45C227.518 51.0145 227.473 50.5905 227.383 50.1778C227.293 49.7661 227.163 49.4009 226.993 49.0843C226.825 48.7686 226.616 48.5147 226.37 48.3217C226.122 48.1296 225.845 48.0336 225.537 48.0336L225.536 48.0326ZM228.738 50.4222C228.738 50.8462 228.669 51.257 228.53 51.6526C228.389 52.0472 228.184 52.3942 227.914 52.6938C227.643 52.9933 227.306 53.2339 226.902 53.4145C226.497 53.5942 226.026 53.6855 225.492 53.6855C225.09 53.6855 224.729 53.6066 224.409 53.4488C224.09 53.2909 223.819 53.0827 223.597 52.8259C223.375 52.5683 223.206 52.2744 223.086 51.9445C222.968 51.6136 222.908 51.276 222.908 50.9309C222.908 50.5068 222.978 50.0989 223.117 49.7024C223.257 49.3068 223.463 48.9588 223.732 48.6602C224.003 48.3616 224.342 48.1211 224.749 47.9404C225.156 47.7588 225.627 47.6685 226.156 47.6685C226.558 47.6685 226.918 47.7483 227.238 47.9052C227.558 48.064 227.829 48.2723 228.051 48.529C228.271 48.7867 228.443 49.0795 228.561 49.4104C228.68 49.7404 228.739 50.0789 228.739 50.4231L228.738 50.4222Z" fill="#363636"/>
<path d="M231.241 47.7778H236.505V49.6339L236.435 49.6425L235.309 48.0745H234.437V52.6852L235.082 53.5829H232.655L233.301 52.6852V48.0821H232.427L231.311 49.6425L231.241 49.6339V47.7778Z" fill="#363636"/>
<path d="M241.084 53.2536C241.306 53.2536 241.515 53.227 241.712 53.1728C241.909 53.1186 242.083 53.0397 242.233 52.936C242.38 52.8315 242.498 52.7012 242.586 52.5462C242.672 52.3903 242.716 52.2115 242.716 52.008C242.716 51.7266 242.669 51.4936 242.577 51.3139C242.484 51.1323 242.353 50.9877 242.183 50.8812C242.015 50.7738 241.814 50.6996 241.58 50.6568C241.348 50.614 241.092 50.5922 240.812 50.5922V53.2546H241.083L241.084 53.2536ZM240.813 50.3801C241.094 50.3801 241.338 50.3507 241.546 50.2917C241.756 50.2318 241.931 50.151 242.07 50.0492C242.21 49.9475 242.315 49.8267 242.385 49.686C242.455 49.5443 242.489 49.3922 242.489 49.2286C242.489 48.9728 242.447 48.7694 242.358 48.6134C242.272 48.4575 242.16 48.3405 242.026 48.2578C241.892 48.176 241.745 48.1218 241.58 48.0923C241.419 48.0638 241.261 48.0496 241.11 48.0496H240.813V50.3801ZM241.154 47.7786C241.52 47.7786 241.854 47.7985 242.159 47.8375C242.461 47.8775 242.72 47.9459 242.934 48.0401C243.149 48.137 243.318 48.2673 243.437 48.4309C243.556 48.5954 243.615 48.8036 243.615 49.0575C243.615 49.2486 243.573 49.4179 243.488 49.5614C243.404 49.706 243.298 49.8324 243.166 49.9427C243.035 50.053 242.888 50.1462 242.724 50.2232C242.563 50.2993 242.398 50.3687 242.237 50.4315C242.784 50.5494 243.215 50.7367 243.528 50.9953C243.843 51.2521 243.999 51.5982 243.999 52.0327C243.999 52.338 243.905 52.5909 243.716 52.7915C243.527 52.9931 243.288 53.15 243.001 53.266C242.712 53.382 242.396 53.4638 242.054 53.5123C241.711 53.5598 241.384 53.5845 241.076 53.5845H239.155L239.677 52.6869V48.661L239.155 47.7795H241.154V47.7786Z" fill="#363636"/>
<path d="M249.196 48.0326C248.899 48.0326 248.66 48.0992 248.481 48.2323C248.299 48.3635 248.159 48.5271 248.061 48.7192C247.963 48.9112 247.896 49.1138 247.86 49.3296C247.824 49.5445 247.808 49.7366 247.808 49.9068C247.808 50.3413 247.851 50.7654 247.939 51.1781C248.026 51.5898 248.154 51.9559 248.323 52.2754C248.491 52.5939 248.698 52.8507 248.943 53.0427C249.187 53.2348 249.464 53.3308 249.772 53.3308C250.034 53.3308 250.256 53.2652 250.436 53.1312C250.615 52.998 250.76 52.8345 250.867 52.6405C250.976 52.4437 251.053 52.2402 251.103 52.0253C251.152 51.8114 251.177 51.6193 251.177 51.45C251.177 51.0145 251.131 50.5905 251.041 50.1778C250.951 49.7661 250.822 49.4009 250.652 49.0843C250.484 48.7686 250.275 48.5147 250.029 48.3217C249.781 48.1296 249.504 48.0336 249.195 48.0336L249.196 48.0326ZM252.399 50.4222C252.399 50.8462 252.329 51.257 252.19 51.6526C252.05 52.0472 251.845 52.3942 251.575 52.6938C251.304 52.9933 250.967 53.2339 250.562 53.4145C250.158 53.5942 249.687 53.6855 249.153 53.6855C248.751 53.6855 248.39 53.6066 248.07 53.4488C247.75 53.2909 247.479 53.0827 247.258 52.8259C247.036 52.5683 246.867 52.2744 246.747 51.9445C246.628 51.6136 246.568 51.276 246.568 50.9309C246.568 50.5068 246.639 50.0989 246.778 49.7024C246.917 49.3068 247.124 48.9588 247.393 48.6602C247.664 48.3616 248.002 48.1211 248.409 47.9404C248.816 47.7588 249.286 47.6685 249.815 47.6685C250.218 47.6685 250.577 47.7483 250.898 47.9052C251.218 48.064 251.489 48.2723 251.71 48.529C251.931 48.7867 252.102 49.0795 252.219 49.4104C252.339 49.7404 252.398 50.0789 252.398 50.4231L252.399 50.4222Z" fill="#363636"/>
<path d="M256.604 50.8379C257.082 50.8379 257.451 50.7238 257.714 50.4947C257.975 50.2655 258.107 49.9108 258.107 49.4306C258.107 48.9514 257.975 48.5977 257.709 48.3714C257.443 48.1451 257.075 48.0329 256.604 48.0329V50.8389V50.8379ZM255.469 52.6855V48.6757L254.823 47.7771H256.918C257.06 47.7771 257.216 47.7819 257.391 47.7942C257.566 47.8056 257.742 47.8303 257.923 47.8665C258.103 47.9036 258.28 47.9559 258.452 48.0234C258.624 48.0909 258.775 48.1831 258.905 48.2991C259.037 48.4151 259.142 48.5568 259.223 48.727C259.306 48.8963 259.346 49.0979 259.346 49.3289C259.346 49.5885 259.289 49.8215 259.172 50.024C259.054 50.2275 258.905 50.4005 258.722 50.5451C258.538 50.6896 258.331 50.8046 258.096 50.8931C257.865 50.9806 257.634 51.0386 257.408 51.0661C257.267 51.0899 257.124 51.1051 256.976 51.1127C256.828 51.1222 256.703 51.127 256.604 51.127V52.6864L257.391 53.584H254.823L255.469 52.6864V52.6855Z" fill="#363636"/>
<path d="M262.254 52.686V48.6686L261.616 47.7786H264.044L263.389 48.6771V52.5671L266.209 47.7786H267.869L267.214 48.6771V52.686L267.859 53.5836H265.432L266.078 52.686V48.795L263.259 53.5836H261.609L262.254 52.686Z" fill="#363636"/>
<path d="M270.428 47.7778H275.693V49.6339L275.624 49.6425L274.498 48.0745H273.625V52.6852L274.27 53.5829H271.844L272.491 52.6852V48.0821H271.617L270.499 49.6425L270.428 49.6339V47.7778Z" fill="#363636"/>
<path d="M282.718 53.5845H278.344L278.867 52.6869V48.66L278.344 47.7786H282.552V49.5586H282.447L281.486 48.0828H280.002V50.4315H282.385V50.8128H280.002V53.2793H281.565L282.718 51.7275L282.813 51.7446L282.718 53.5845Z" fill="#363636"/>
<path d="M285.273 52.3722L285.352 52.3123L286.215 52.685C286.297 52.4368 286.362 52.1573 286.413 51.8454C286.463 51.5345 286.5 51.2045 286.526 50.8546C286.553 50.5047 286.569 50.1396 286.578 49.7611C286.586 49.3836 286.591 49.0071 286.591 48.6334L285.893 47.7786H290.774L290.126 48.6771V52.686L290.774 53.5845H288.206L288.992 52.686V48.1599H287.019C287.019 48.6914 287.017 49.202 287.015 49.6936C287.011 50.1842 286.997 50.6407 286.972 51.0581C286.944 51.4765 286.902 51.8492 286.845 52.1763C286.786 52.5044 286.704 52.7763 286.6 52.9902C286.465 53.2612 286.295 53.4457 286.089 53.5417C285.882 53.6378 285.657 53.6853 285.413 53.6853L285.273 52.3722Z" fill="#363636"/>
<path d="M295.428 53.2531C295.65 53.2531 295.859 53.2227 296.058 53.1599C296.255 53.0981 296.43 53.0088 296.577 52.8927C296.726 52.7758 296.843 52.6332 296.93 52.4649C297.018 52.2947 297.061 52.1026 297.061 51.8877C297.061 51.6167 297.02 51.3875 296.94 51.2012C296.859 51.0148 296.745 50.8646 296.6 50.7476C296.454 50.6316 296.281 50.5489 296.079 50.4985C295.879 50.4481 295.662 50.4224 295.429 50.4224H295.158V53.2531H295.429H295.428ZM294.023 52.6855V48.6681L293.387 47.7771H295.813L295.158 48.6757V50.0915H295.42C295.606 50.0915 295.809 50.0982 296.027 50.1124C296.246 50.1257 296.462 50.1571 296.677 50.2047C296.892 50.2541 297.099 50.3178 297.302 50.4005C297.503 50.4833 297.679 50.5926 297.834 50.7305C297.989 50.8693 298.113 51.0376 298.206 51.2354C298.299 51.4332 298.345 51.6671 298.345 51.939C298.345 52.2728 298.251 52.5447 298.061 52.7568C297.873 52.9679 297.634 53.1371 297.346 53.2598C297.057 53.3843 296.743 53.469 296.398 53.5146C296.055 53.5602 295.729 53.5821 295.42 53.5821H293.5L294.023 52.6845V52.6855Z" fill="#363636"/>
<path d="M306.73 53.5838H304.304L304.95 52.6862V50.7607H302.321V52.6862L302.968 53.5838H300.541L301.188 52.6862V48.6688L300.55 47.7778H302.977L302.321 48.6764V50.3803H304.95V48.6688L304.311 47.7778H306.74L306.086 48.6764V52.6862L306.73 53.5838Z" fill="#363636"/>
<path d="M314.672 53.5845L315.318 52.6869V48.6771L314.672 47.7786H317.1L316.451 48.6771V52.6869L317.1 53.5845H314.672ZM311.39 53.2546C311.611 53.2546 311.821 53.2242 312.019 53.1614C312.217 53.0996 312.39 53.0102 312.538 52.8942C312.687 52.7773 312.805 52.6346 312.891 52.4663C312.979 52.2961 313.023 52.104 313.023 51.8891C313.023 51.6182 312.982 51.389 312.901 51.2026C312.82 51.0163 312.707 50.866 312.56 50.7491C312.415 50.6331 312.241 50.5503 312.039 50.4999C311.84 50.4495 311.623 50.4239 311.39 50.4239H311.119V53.2546H311.39ZM309.985 52.6869V48.6695L309.348 47.7786H311.775L311.12 48.6771V50.093H311.381C311.569 50.093 311.769 50.0996 311.988 50.1139C312.207 50.1272 312.423 50.1586 312.638 50.2061C312.853 50.2556 313.062 50.3193 313.263 50.402C313.464 50.4847 313.641 50.5941 313.795 50.7319C313.95 50.8708 314.072 51.0391 314.166 51.2369C314.259 51.4346 314.305 51.6685 314.305 51.9405C314.305 52.2742 314.211 52.5462 314.023 52.7582C313.834 52.9693 313.594 53.1386 313.306 53.2612C313.018 53.3858 312.703 53.4704 312.359 53.5161C312.017 53.5617 311.69 53.5836 311.381 53.5836H309.461L309.985 52.686V52.6869Z" fill="#363636"/>
<path d="M322.921 47.3537C322.375 47.3537 321.952 47.2501 321.659 47.0438C321.366 46.8384 321.218 46.5312 321.218 46.1243H322.222C322.222 46.4247 322.283 46.6501 322.405 46.8032C322.528 46.9553 322.7 47.0314 322.921 47.0314C323.143 47.0314 323.313 46.9553 323.436 46.8032C323.558 46.6501 323.619 46.4247 323.619 46.1243H324.622C324.622 46.5312 324.477 46.8384 324.183 47.0438C323.889 47.2501 323.468 47.3537 322.921 47.3537ZM320.355 52.6852V48.6688L319.717 47.7778H322.144L321.489 48.6764V52.5673L324.31 47.7778H325.97L325.315 48.6764V52.6862L325.96 53.5847H323.533L324.18 52.6862V48.7962L321.36 53.5847H319.711L320.357 52.6862L320.355 52.6852Z" fill="#363636"/>
<path d="M196.103 65.4845C196.232 65.5473 196.38 65.5777 196.549 65.5777C196.846 65.5777 197.082 65.5045 197.255 65.3562C197.431 65.2107 197.566 65.0367 197.661 64.8351C197.759 64.6354 197.82 64.431 197.849 64.2246C197.877 64.0192 197.893 63.8585 197.893 63.7463C197.893 63.1368 197.751 62.6738 197.466 62.3609C197.18 62.0472 196.726 61.8912 196.103 61.8912V65.4845ZM195.004 61.9663C194.877 61.9036 194.727 61.8722 194.558 61.8722C194.261 61.8722 194.026 61.9473 193.852 62.0937C193.677 62.2402 193.542 62.4142 193.446 62.6158C193.349 62.8154 193.287 63.0189 193.258 63.2262C193.229 63.4316 193.214 63.5914 193.214 63.7036C193.214 64.314 193.357 64.7771 193.642 65.0899C193.927 65.4037 194.381 65.5596 195.004 65.5596V61.9663ZM195.004 65.9847V65.882C194.94 65.8934 194.87 65.9019 194.794 65.9077C194.719 65.9134 194.64 65.9162 194.558 65.9162C194.157 65.9162 193.795 65.8515 193.476 65.7251C193.156 65.5977 192.885 65.4332 192.665 65.2335C192.443 65.0319 192.273 64.8066 192.154 64.5555C192.034 64.3045 191.975 64.0506 191.975 63.7967C191.975 63.4858 192.033 63.192 192.149 62.9153C192.265 62.6376 192.439 62.3952 192.67 62.1879C192.9 61.9787 193.189 61.8132 193.537 61.6915C193.888 61.5689 194.294 61.5099 194.76 61.5099H194.886C194.924 61.5099 194.962 61.5118 195.004 61.5166V61.4652L194.358 60.5667H196.75L196.103 61.4652V61.5679C196.167 61.5565 196.237 61.5479 196.313 61.5413C196.388 61.5365 196.468 61.5327 196.549 61.5327C196.95 61.5327 197.312 61.5974 197.631 61.7239C197.952 61.8503 198.222 62.0158 198.443 62.2145C198.665 62.4161 198.834 62.6424 198.955 62.8934C199.074 63.1444 199.134 63.3974 199.134 63.6522C199.134 63.9631 199.076 64.257 198.962 64.5337C198.849 64.8104 198.675 65.0528 198.443 65.2611C198.21 65.4712 197.919 65.6367 197.57 65.7565C197.22 65.8791 196.813 65.94 196.348 65.94H196.221C196.183 65.94 196.145 65.9371 196.103 65.9314V65.9828L196.75 66.8804H194.358L195.004 65.9828V65.9847Z" fill="#363636"/>
<path d="M204.347 61.0776C204.051 61.0776 203.812 61.1441 203.631 61.2773C203.451 61.4085 203.311 61.572 203.212 61.7641C203.114 61.9562 203.046 62.1606 203.012 62.3746C202.976 62.5904 202.96 62.7815 202.96 62.9517C202.96 63.3863 203.003 63.8104 203.091 64.223C203.178 64.6357 203.306 65.0008 203.474 65.3203C203.643 65.6389 203.85 65.8947 204.094 66.0867C204.339 66.2788 204.616 66.3748 204.923 66.3748C205.186 66.3748 205.407 66.3092 205.587 66.1752C205.767 66.042 205.911 65.8785 206.019 65.6845C206.127 65.4886 206.205 65.2842 206.255 65.0693C206.304 64.8554 206.33 64.6633 206.33 64.494C206.33 64.0585 206.284 63.6354 206.195 63.2227C206.104 62.8101 205.974 62.4459 205.805 62.1283C205.637 61.8126 205.428 61.5587 205.181 61.3657C204.934 61.1736 204.656 61.0776 204.348 61.0776H204.347ZM207.55 63.4681C207.55 63.8912 207.48 64.301 207.341 64.6975C207.201 65.0921 206.996 65.4392 206.726 65.7387C206.454 66.0382 206.119 66.2788 205.714 66.4595C205.308 66.6392 204.839 66.7305 204.303 66.7305C203.901 66.7305 203.541 66.6515 203.221 66.4937C202.901 66.3359 202.629 66.1276 202.408 65.8709C202.187 65.6132 202.018 65.3203 201.899 64.9904C201.779 64.6585 201.72 64.3219 201.72 63.9758C201.72 63.5527 201.79 63.1438 201.929 62.7473C202.069 62.3517 202.275 62.0047 202.544 61.7052C202.816 61.4066 203.155 61.166 203.562 60.9853C203.97 60.8047 204.439 60.7144 204.968 60.7144C205.37 60.7144 205.731 60.7933 206.05 60.9502C206.371 61.1099 206.643 61.3172 206.863 61.5739C207.085 61.8316 207.255 62.1245 207.373 62.4554C207.492 62.7853 207.551 63.1238 207.551 63.469L207.55 63.4681Z" fill="#363636"/>
<path d="M216.117 66.6295H213.692L214.337 65.7319V63.8073H211.709V65.7319L212.356 66.6295H209.928L210.575 65.7319V61.7145L209.936 60.8245H212.364L211.709 61.7221V63.427H214.337V61.7145L213.699 60.8245H216.127L215.472 61.7221V65.7319L216.117 66.6295Z" fill="#363636"/>
<path d="M222.433 66.2477V61.2043H220.46C220.46 61.9108 220.447 62.5384 220.424 63.0861C220.401 63.6338 220.363 64.1139 220.31 64.5228C220.258 64.9326 220.193 65.2778 220.118 65.5612C220.042 65.8445 219.953 66.0718 219.848 66.2477H222.433ZM218.591 68.1798V66.2477H219.438C219.66 65.8749 219.814 65.3035 219.9 64.5361C219.989 63.7669 220.032 62.8151 220.032 61.6797L219.334 60.823H224.213L223.567 61.7216V66.2477H224.44V68.1798L224.37 68.1884L223.252 66.6299H219.779L218.661 68.1884L218.59 68.1798H218.591Z" fill="#363636"/>
<path d="M11.9352 27.6361H6.90327C6.82435 27.6361 6.7711 27.5857 6.82435 27.4602L9.14255 20.6833C9.19485 20.5084 9.27472 20.4076 9.32702 20.4076C9.40594 20.4076 9.45824 20.4827 9.53906 20.6833L12.0417 27.4602C12.0684 27.5609 12.0684 27.6361 11.9352 27.6361ZM19.8141 35.5919C19.5507 35.5919 19.1551 35.5672 18.7605 35.4417C18.2071 35.2905 17.4436 34.8892 16.4937 32.6557C14.8867 28.8408 10.7495 18.4754 10.3549 17.5217C10.0392 16.7449 9.93272 16.6184 9.77487 16.6184C9.61703 16.6184 9.51149 16.7686 9.1958 17.5968L3.21487 33.1824C2.74039 34.4385 2.21361 35.3923 1.00126 35.5425C0.791118 35.5682 0.422183 35.5929 0.237716 35.5929C0.106497 35.5929 0 35.6433 0 35.7441C0 35.8943 0.157843 35.9447 0.502056 35.9447C1.74008 35.9447 3.1892 35.8696 3.47921 35.8696C3.76827 35.8696 4.90075 35.9447 5.53307 35.9447C5.76984 35.9447 5.92958 35.8943 5.92958 35.7441C5.92958 35.6433 5.85066 35.5929 5.66524 35.5929H5.40185C4.954 35.5929 4.4006 35.3675 4.4006 34.8645C4.4006 34.4129 4.53181 33.811 4.76953 33.1824L6.35082 28.741C6.40216 28.6155 6.48204 28.5394 6.61325 28.5394H12.2785C12.4107 28.5394 12.4639 28.5898 12.5162 28.6906L14.9666 34.8636C15.0189 34.9644 15.0189 35.1146 15.0189 35.1897C15.0189 35.4151 14.861 35.5415 14.8078 35.5415C14.7289 35.5415 14.6243 35.6167 14.6243 35.7174C14.6243 35.8686 14.9133 35.8686 15.4135 35.8934C17.2325 35.9438 19.1551 35.9438 19.5507 35.9438C19.8407 35.9438 20.0775 35.8934 20.0775 35.7431C20.0775 35.6176 19.9719 35.5919 19.8141 35.5919Z" fill="#363636"/>
<path d="M39.0244 17.8215C37.8121 17.8215 36.284 17.8967 35.704 17.8967C35.4939 17.8967 33.9126 17.8215 32.7269 17.8215C32.4378 17.8215 32.3066 17.8719 32.3066 18.0231C32.3066 18.123 32.4112 18.1734 32.5167 18.1734C32.7525 18.1734 33.2014 18.199 33.4124 18.2485C34.2815 18.4244 34.4926 18.8256 34.5449 19.6786C34.5972 20.4811 34.5972 21.1847 34.5972 25.1004V29.5172C34.5972 31.9266 34.5972 33.9092 34.466 34.9637C34.3605 35.6911 34.2292 36.2436 33.7025 36.3444C33.4657 36.3948 33.1491 36.4451 32.9113 36.4451C32.7535 36.4451 32.7012 36.5203 32.7012 36.5954C32.7012 36.7456 32.8334 36.7951 33.1224 36.7951C33.9135 36.7951 35.5738 36.7199 35.6527 36.7199C35.7839 36.7199 37.4441 36.7951 38.8942 36.7951C39.1842 36.7951 39.3154 36.7199 39.3154 36.5954C39.3154 36.5193 39.2631 36.4451 39.1034 36.4451C38.8675 36.4451 38.2866 36.3948 37.9176 36.3444C37.1275 36.2436 36.9696 35.6921 36.8907 34.9637C36.7585 33.9101 36.7585 31.9266 36.7585 29.5172V19.2022C36.7585 18.9512 36.8108 18.7753 36.9687 18.7258C37.2064 18.626 37.6533 18.5746 38.1011 18.5746C38.7078 18.5746 40.3148 18.4748 41.7116 19.8307C43.1084 21.1857 43.1864 22.8678 43.1864 23.6941C43.1864 26.0037 41.1838 27.7866 38.6279 27.7866C38.0755 27.7866 37.9167 27.8113 37.9167 28.0119C37.9167 28.1375 38.0755 28.1878 38.2076 28.1878C38.3389 28.2126 38.6279 28.2126 38.761 28.2126C42.5017 28.2126 45.2431 25.8031 45.2431 22.2392C45.2431 20.9099 44.5052 19.7794 43.9261 19.2526C43.504 18.876 42.3182 17.8225 39.0254 17.8225L39.0244 17.8215Z" fill="#363636"/>
<path d="M77.387 35.5921C77.2292 35.5921 76.8345 35.5417 76.4647 35.4419C75.7002 35.2165 75.3322 34.839 74.91 34.3113C74.3566 33.6343 69.8514 26.3307 69.3503 25.5529L73.593 19.4797C74.3566 18.4005 74.8587 17.6721 75.6212 17.4458C75.9113 17.3469 76.3068 17.3213 76.4903 17.3213C76.6748 17.3213 76.7803 17.2452 76.7803 17.1453C76.7803 17.0445 76.6482 16.9685 76.3601 16.9685C75.4634 16.9685 74.3832 17.0436 74.1465 17.0436C73.9097 17.0436 72.8029 16.9685 71.8016 16.9685C71.4859 16.9685 71.3528 17.0436 71.3528 17.1453C71.3528 17.2709 71.4317 17.3213 71.5896 17.3213C71.7484 17.3213 72.1173 17.3212 72.3798 17.3964C72.6441 17.4715 72.8286 17.6731 72.8286 17.848C72.8286 18.1495 72.7487 18.3758 72.5642 18.7513C72.3018 19.2781 69.4815 23.5694 68.6913 24.6496C67.3202 22.492 66.241 20.6341 65.1342 18.6506C64.9763 18.3758 64.8708 18.0734 64.8708 17.8233C64.8708 17.6464 64.9497 17.4715 65.1865 17.3954C65.3985 17.3203 65.7408 17.3203 65.8977 17.3203C66.0565 17.3203 66.1345 17.2699 66.1345 17.1444C66.1345 17.0189 66.0565 16.9675 65.6866 16.9675C64.7909 16.9675 63.4473 17.0426 63.2096 17.0426C62.9995 17.0426 60.8638 16.9675 60.1269 16.9675C59.7856 16.9675 59.68 17.0189 59.68 17.1444C59.68 17.2442 59.758 17.3203 59.9158 17.3203C60.0737 17.3203 60.6014 17.3707 61.0226 17.4962C61.9174 17.7976 62.4718 18.5241 63.0775 19.5035L67.2926 26.2546L62.5241 33.4327C61.654 34.7135 61.1272 35.2659 60.3361 35.4656C59.9406 35.5664 59.5459 35.5911 59.3349 35.5911C59.2027 35.5911 59.1247 35.6663 59.1247 35.767C59.1247 35.8669 59.177 35.943 59.3881 35.943C60.2572 35.943 61.5485 35.8669 61.7852 35.8669C62.0229 35.8669 63.6832 35.943 64.3155 35.943C64.4999 35.943 64.6312 35.8926 64.6312 35.767C64.6312 35.6672 64.5522 35.5911 64.421 35.5911C64.2889 35.5911 64.0787 35.5664 63.919 35.5407C63.6832 35.4903 63.4987 35.3154 63.4987 35.0634C63.4987 34.8124 63.6042 34.3607 63.841 33.9595L67.9506 27.3082C69.5319 29.8432 71.06 32.3278 72.4834 34.7867C72.7192 35.188 72.4834 35.44 72.3503 35.4903C72.2447 35.516 72.1924 35.5911 72.1924 35.691C72.1924 35.8165 72.3237 35.8422 73.0092 35.8926C74.3537 35.9182 75.6184 35.943 77.2253 35.943C77.4621 35.943 77.5943 35.8669 77.5943 35.7423C77.5943 35.6415 77.5163 35.5911 77.3841 35.5911L77.387 35.5921Z" fill="#363636"/>
<path d="M112.09 35.5916C111.852 35.5916 111.273 35.5412 110.904 35.4908C110.114 35.39 109.956 34.8385 109.877 34.1102C109.745 33.0566 109.745 31.0722 109.745 28.6636V24.2469V17.3198C109.877 16.4916 109.455 16.3908 109.113 16.9176C103.711 23.5689 100.022 27.7603 96.2816 31.9013C96.1751 32.0268 96.0438 32.0021 96.0438 31.8015C96.0438 23.5185 96.0438 19.6285 96.0971 18.826C96.1484 17.9474 96.3595 17.5205 97.0708 17.3949C97.3865 17.3455 97.5462 17.3198 97.7297 17.3198C97.8353 17.3198 97.9418 17.2694 97.9418 17.1686C97.9418 17.0184 97.8105 16.9671 97.5196 16.9671C96.7294 16.9671 95.0692 17.0422 94.938 17.0422C94.8049 17.0422 93.1466 16.9671 91.9599 16.9671C91.6708 16.9671 91.5396 17.0184 91.5396 17.1686C91.5396 17.2694 91.6442 17.3198 91.7507 17.3198C91.9865 17.3198 92.4344 17.3455 92.6455 17.3949C93.5155 17.5709 93.7266 17.9731 93.7779 18.826C93.8321 19.6285 93.7779 20.3322 93.8321 24.2469V35.7913C93.7 36.6195 94.1221 36.7193 94.4644 36.1926L94.7811 35.7913L96.9671 33.1061C100.234 29.0402 103.687 25.0998 107.164 21.2345C107.402 20.9588 107.533 21.109 107.533 21.4114V28.6636C107.533 31.0722 107.533 33.0557 107.402 34.1102C107.295 34.8376 107.164 35.39 106.637 35.4908C106.401 35.5412 106.084 35.5916 105.847 35.5916C105.689 35.5916 105.636 35.6667 105.636 35.7428C105.636 35.893 105.767 35.9434 106.057 35.9434C106.848 35.9434 108.508 35.8674 108.639 35.8674C108.772 35.8674 110.431 35.9434 111.88 35.9434C112.17 35.9434 112.302 35.8674 112.302 35.7428C112.302 35.6677 112.249 35.5916 112.092 35.5916H112.09Z" fill="#363636"/>
<path d="M145.422 31.3998C145.265 31.3998 145.211 31.5006 145.159 31.7763C145.08 32.228 144.738 33.3329 144.184 33.8844C143.131 34.9132 141.575 35.1386 139.599 35.1386C133.961 35.1386 130.087 30.7475 130.087 25.9533C130.087 21.5118 131.747 17.5704 138.519 17.5704C141.812 17.5704 144.896 18.6249 144.896 21.5612C144.896 21.9121 144.922 22.088 145.107 22.088C145.317 22.088 145.369 21.7114 145.369 20.5077C145.369 19.0519 145.555 17.8471 145.555 17.5704C145.555 17.4202 145.502 17.2947 145.212 17.2947C144.211 17.2947 141.84 16.6177 138.705 16.6177C130.327 16.6177 127.716 22.1384 127.716 26.1539C127.716 31.9513 131.564 36.2929 139.6 36.2929C141.287 36.2929 143.29 36.117 144.342 35.7158C144.818 35.5151 144.87 35.4647 145.028 34.9884C145.291 34.1354 145.608 31.9513 145.608 31.7763C145.608 31.5748 145.556 31.3998 145.423 31.3998H145.422Z" fill="#363636"/>
<path d="M197.754 16.969C196.541 16.969 195.013 17.0441 194.433 17.0441C194.222 17.0441 192.642 16.969 191.455 16.969C191.165 16.969 191.035 17.0194 191.035 17.1706C191.035 17.2704 191.139 17.3208 191.246 17.3208C191.482 17.3208 191.93 17.3465 192.141 17.3959C193.011 17.5718 193.222 17.9741 193.273 18.826C193.327 19.6295 193.327 20.3322 193.327 24.2479V28.6637C193.327 31.0732 193.327 33.0557 193.195 34.1112C193.089 34.8386 192.958 35.391 192.432 35.4909C192.195 35.5413 191.878 35.5917 191.64 35.5917C191.483 35.5917 191.429 35.6668 191.429 35.7419C191.429 35.8931 191.561 35.9416 191.851 35.9416C192.642 35.9416 194.301 35.8665 194.381 35.8665C194.514 35.8665 196.172 35.9416 197.622 35.9416C197.912 35.9416 198.043 35.8665 198.043 35.7419C198.043 35.6658 197.991 35.5917 197.832 35.5917C197.596 35.5917 197.015 35.5413 196.646 35.4909C195.856 35.391 195.698 34.8386 195.618 34.1112C195.487 33.0567 195.487 31.0732 195.487 28.6637V18.3487C195.487 18.0986 195.539 17.9218 195.698 17.8723C195.936 17.7725 196.382 17.7211 196.83 17.7211C197.437 17.7211 199.044 17.6213 200.442 18.9772C201.837 20.3322 201.916 22.0143 201.916 22.8425C201.916 25.1512 199.914 26.9331 197.359 26.9331C196.806 26.9331 196.647 26.9578 196.647 27.1584C196.647 27.284 196.806 27.3344 196.937 27.3344C197.07 27.36 197.359 27.36 197.491 27.36C201.232 27.36 203.972 24.9505 203.972 21.3858C203.972 20.0564 203.234 18.9259 202.655 18.3991C202.234 18.0235 201.048 16.969 197.755 16.969H197.754Z" fill="#363636"/>
<path d="M228.37 27.6353H223.338C223.259 27.6353 223.207 27.5849 223.259 27.4594L225.578 20.6826C225.63 20.5077 225.709 20.4069 225.762 20.4069C225.841 20.4069 225.895 20.482 225.974 20.6826L228.476 27.4594C228.502 27.5602 228.502 27.6353 228.37 27.6353ZM236.25 35.5912C235.986 35.5912 235.591 35.5665 235.195 35.441C234.642 35.2898 233.878 34.8885 232.929 32.6549C231.322 28.8401 227.185 18.4747 226.79 17.521C226.475 16.7441 226.369 16.6177 226.211 16.6177C226.053 16.6177 225.947 16.7679 225.632 17.5961L219.65 33.1817C219.176 34.4378 218.65 35.3915 217.438 35.5418C217.227 35.5674 216.859 35.5922 216.675 35.5922C216.543 35.5922 216.437 35.6425 216.437 35.7433C216.437 35.8936 216.595 35.944 216.938 35.944C218.176 35.944 219.625 35.8689 219.915 35.8689C220.205 35.8689 221.338 35.944 221.97 35.944C222.207 35.944 222.366 35.8936 222.366 35.7433C222.366 35.6425 222.288 35.5922 222.102 35.5922H221.84C221.392 35.5922 220.838 35.3668 220.838 34.8638C220.838 34.4121 220.969 33.8102 221.206 33.1817L222.788 28.7402C222.839 28.6147 222.919 28.5387 223.05 28.5387H228.716C228.848 28.5387 228.901 28.589 228.953 28.6898L231.404 34.8628C231.456 34.9636 231.456 35.1139 231.456 35.189C231.456 35.4143 231.298 35.5408 231.246 35.5408C231.167 35.5408 231.061 35.6159 231.061 35.7167C231.061 35.8679 231.352 35.8679 231.852 35.8926C233.669 35.943 235.594 35.943 235.989 35.943C236.279 35.943 236.514 35.8926 236.514 35.7424C236.514 35.6169 236.41 35.5912 236.253 35.5912H236.25Z" fill="#363636"/>
<path d="M264.417 16.7929C264.206 16.7929 263.494 17.0439 261.807 17.0439H251.927C251.611 17.0439 250.61 16.9935 249.845 16.9184C249.133 16.867 248.871 16.6169 248.685 16.6169C248.581 16.6169 248.474 16.9431 248.423 17.0933C248.371 17.2949 247.843 19.4524 247.843 19.7034C247.843 19.8546 247.897 19.9288 247.974 19.9288C248.081 19.9288 248.16 19.8784 248.239 19.6787C248.317 19.5019 248.397 19.3269 248.686 18.9009C249.108 18.2981 249.741 18.1231 251.374 18.0974L255.274 18.047V28.6634C255.274 31.0729 255.274 33.0555 255.141 34.11C255.035 34.8383 254.905 35.3908 254.377 35.4906C254.142 35.541 253.824 35.5905 253.587 35.5905C253.429 35.5905 253.376 35.6656 253.376 35.7417C253.376 35.8928 253.507 35.9413 253.797 35.9413C254.588 35.9413 256.248 35.8662 256.38 35.8662C256.511 35.8662 258.172 35.9413 259.62 35.9413C259.911 35.9413 260.043 35.8662 260.043 35.7417C260.043 35.6656 259.989 35.5905 259.831 35.5905C259.594 35.5905 259.015 35.5401 258.645 35.4906C257.855 35.3908 257.698 34.8383 257.618 34.11C257.487 33.0564 257.487 31.0729 257.487 28.6634V18.047L260.807 18.0974C263.337 18.1478 263.943 18.725 264.048 19.4781L264.073 19.7548C264.101 20.1057 264.152 20.1808 264.285 20.1808C264.39 20.1808 264.47 20.0809 264.47 19.8556C264.47 19.5789 264.548 17.8474 264.548 17.0943C264.548 16.9431 264.548 16.7929 264.417 16.7929Z" fill="#363636"/>
<path d="M299.936 35.5909C299.697 35.5909 299.119 35.5405 298.749 35.4901C297.96 35.3893 297.802 34.8378 297.722 34.1094C297.591 33.0559 297.591 31.0714 297.591 28.6629V24.2461V17.3191C297.722 16.4909 297.301 16.3901 296.958 16.9169C291.556 23.5682 287.868 27.7596 284.126 31.9006C284.021 32.0261 283.889 32.0014 283.889 31.8007C283.889 23.5178 283.889 19.6278 283.942 18.8253C283.994 17.9467 284.205 17.5197 284.916 17.3942C285.232 17.3448 285.391 17.3191 285.575 17.3191C285.681 17.3191 285.787 17.2687 285.787 17.1679C285.787 17.0177 285.654 16.9663 285.365 16.9663C284.575 16.9663 282.915 17.0414 282.783 17.0414C282.651 17.0414 280.991 16.9663 279.806 16.9663C279.516 16.9663 279.386 17.0177 279.386 17.1679C279.386 17.2687 279.491 17.3191 279.597 17.3191C279.833 17.3191 280.281 17.3448 280.492 17.3942C281.362 17.5701 281.573 17.9723 281.624 18.8253C281.677 19.6278 281.624 20.3314 281.677 24.2461V35.7906C281.545 36.6188 281.967 36.7186 282.31 36.1918L282.626 35.7906L284.813 33.1053C288.079 29.0394 291.532 25.0991 295.01 21.2338C295.246 20.9581 295.379 21.1083 295.379 21.4107V28.6629C295.379 31.0714 295.379 33.0549 295.247 34.1094C295.142 34.8369 295.011 35.3893 294.483 35.4901C294.246 35.5405 293.929 35.5909 293.693 35.5909C293.535 35.5909 293.481 35.666 293.481 35.7421C293.481 35.8923 293.614 35.9427 293.903 35.9427C294.693 35.9427 296.353 35.8666 296.484 35.8666C296.618 35.8666 298.276 35.9427 299.726 35.9427C300.016 35.9427 300.147 35.8666 300.147 35.7421C300.147 35.667 300.095 35.5909 299.937 35.5909H299.936Z" fill="#363636"/>
<path d="M327.682 16.7437C327.577 16.7437 327.471 16.8435 327.313 16.8939C327.208 16.9196 326.575 16.969 326.154 16.9947C325.785 17.0194 320.199 17.0451 319.672 17.0451C319.54 17.0451 317.88 16.969 316.694 16.969C316.404 16.969 316.274 17.0194 316.274 17.1706C316.274 17.2704 316.379 17.3208 316.484 17.3208C316.721 17.3208 317.169 17.3465 317.38 17.3969C318.249 17.5728 318.407 17.9493 318.487 18.5512C318.539 18.9772 318.566 20.0317 318.566 24.2479V28.6646C318.566 31.7264 318.513 33.7594 318.38 34.4126C318.223 35.14 318.091 35.3654 317.671 35.4909C317.433 35.566 317.117 35.5907 316.879 35.5907C316.722 35.5907 316.669 35.6668 316.669 35.7419C316.669 35.8931 316.8 35.9416 317.09 35.9416C317.881 35.9416 319.436 35.8665 319.567 35.8665C319.698 35.8665 321.359 35.9416 322.809 35.9416C323.098 35.9416 323.231 35.8665 323.231 35.7419C323.231 35.6668 323.177 35.5907 323.019 35.5907C322.782 35.5907 322.202 35.5403 321.833 35.4909C321.254 35.4158 320.936 35.0639 320.831 34.3612C320.7 33.533 320.674 31.0732 320.674 28.6637V18.2479C320.674 18.0482 320.752 17.9722 320.91 17.9722L324.52 18.0482C326.076 18.0482 326.708 18.5503 326.865 18.8764C327.024 19.2035 327.103 19.6295 327.103 19.8302C327.103 20.0061 327.154 20.1069 327.286 20.1069C327.418 20.1069 327.471 19.9813 327.496 19.8558C327.55 19.5544 327.603 18.4495 327.627 18.1994C327.706 17.4958 327.84 17.1944 327.84 17.0194C327.84 16.8939 327.787 16.7437 327.681 16.7437H327.682Z" fill="#363636"/>
<path d="M169.515 14.2183V0H169.497H167.092V14.2183H167.112H169.515Z" fill="#363636"/>
<path d="M180.297 18.3239V16.9965V16.9841L156.311 16.9965V18.2982V18.3239H180.297Z" fill="#363636"/>
<path d="M169.465 20.7588L168.821 101.834C168.821 102.131 168.534 105.85 168.305 105.85C168.074 105.85 167.816 102.131 167.816 101.834L167.143 20.7588H165.898L166.748 102.912C166.748 104.112 167.13 107.322 168.303 107.322C169.478 107.322 169.858 104.112 169.858 102.912L170.709 20.7588H169.464H169.465Z" fill="#363636"/>
</svg>
