<svg width="24" height="24" viewBox="0 0 24 24" fill="none" xmlns="http://www.w3.org/2000/svg">
<g clip-path="url(#clip0_207_2104)">
<circle cx="12" cy="12" r="11.5" stroke="#363636"/>
<path d="M15.3601 12C14.8801 12 13.9201 12.96 12.0001 12.96C10.0801 12.96 9.12005 12 8.64005 12C8.11205 12 7.68005 12.432 7.68005 12.96C7.68005 13.44 7.96805 13.68 8.16005 13.776C8.73605 14.112 10.5601 14.88 10.5601 14.88L8.49605 17.472C8.49605 17.472 8.11205 17.904 8.11205 18.24C8.11205 18.768 8.54405 19.2 9.07205 19.2C9.55205 19.2 9.79205 18.864 9.79205 18.864L12.0001 16.32L14.1601 18.864C14.1601 18.864 14.4001 19.2 14.8801 19.2C15.4081 19.2 15.8401 18.768 15.8401 18.24C15.8401 17.952 15.4561 17.472 15.4561 17.472L13.4401 14.88C13.4401 14.88 15.2641 14.112 15.8401 13.776C16.0321 13.632 16.3201 13.44 16.3201 12.96C16.3201 12.432 15.8881 12 15.3601 12Z" fill="#363636"/>
<path d="M12 4.80005C10.128 4.80005 8.64001 6.28805 8.64001 8.16005C8.64001 10.032 10.128 11.52 12 11.52C13.872 11.52 15.36 10.032 15.36 8.16005C15.36 6.28805 13.872 4.80005 12 4.80005ZM12 9.84005C11.088 9.84005 10.32 9.07205 10.32 8.16005C10.32 7.24805 11.088 6.48005 12 6.48005C12.912 6.48005 13.68 7.24805 13.68 8.16005C13.68 9.07205 12.912 9.84005 12 9.84005Z" fill="#363636"/>
</g>
<defs>
<clipPath id="clip0_207_2104">
<rect width="24" height="24" fill="white"/>
</clipPath>
</defs>
</svg>
