<svg width="9" height="13" viewBox="0 0 9 13" fill="none" xmlns="http://www.w3.org/2000/svg">
<path d="M4.5 0.5C3.21875 0.53125 2.15625 0.96875 1.3125 1.8125C0.46875 2.65625 0.03125 3.71875 0 5C0 5.48438 0.0625 5.92188 0.1875 6.3125C0.3125 6.71875 0.554688 7.19531 0.914062 7.74219C1.27344 8.30469 1.78906 9.0625 2.46094 10.0156C2.91406 10.6406 3.4375 11.3906 4.03125 12.2656C4.15625 12.4219 4.3125 12.5 4.5 12.5C4.6875 12.5 4.84375 12.4219 4.96875 12.2656C5.57812 11.375 6.10156 10.6172 6.53906 9.99219C7.21094 9.05469 7.72656 8.30469 8.08594 7.74219C8.44531 7.19531 8.6875 6.71875 8.8125 6.3125C8.9375 5.92188 9 5.48438 9 5C8.96875 3.71875 8.53125 2.65625 7.6875 1.8125C6.84375 0.96875 5.78125 0.53125 4.5 0.5ZM4.5 10.9531C4.09375 10.3594 3.72656 9.82812 3.39844 9.35938C2.72656 8.40625 2.22656 7.67969 1.89844 7.17969C1.57031 6.67969 1.35938 6.28125 1.26562 5.98438C1.15625 5.67188 1.10938 5.34375 1.125 5C1.15625 4.04688 1.48438 3.25 2.10938 2.60938C2.75 1.98438 3.54688 1.65625 4.5 1.625C5.45312 1.65625 6.25 1.98438 6.89062 2.60938C7.51562 3.25 7.84375 4.04688 7.875 5C7.89062 5.34375 7.84375 5.67188 7.73438 5.98438C7.64062 6.28125 7.42969 6.67969 7.10156 7.17969C6.77344 7.67969 6.27344 8.40625 5.60156 9.35938C5.38281 9.67188 5.14062 10.0234 4.875 10.4141C4.75 10.5859 4.625 10.7656 4.5 10.9531ZM4.5 3.10156C3.96875 3.11719 3.52344 3.30469 3.16406 3.66406C2.82031 4.00781 2.64062 4.44531 2.625 4.97656C2.64062 5.50781 2.82031 5.95312 3.16406 6.3125C3.52344 6.65625 3.96875 6.83594 4.5 6.85156C5.03125 6.83594 5.47656 6.65625 5.83594 6.3125C6.17969 5.95312 6.35938 5.50781 6.375 4.97656C6.35938 4.44531 6.17969 4.00781 5.83594 3.66406C5.47656 3.30469 5.03125 3.11719 4.5 3.10156ZM4.5 5.75C4.28125 5.75 4.10156 5.67969 3.96094 5.53906C3.82031 5.39844 3.75 5.21875 3.75 5C3.75 4.78125 3.82031 4.60156 3.96094 4.46094C4.10156 4.32031 4.28125 4.25 4.5 4.25C4.71875 4.25 4.89844 4.32031 5.03906 4.46094C5.17969 4.60156 5.25 4.78125 5.25 5C5.25 5.21875 5.17969 5.39844 5.03906 5.53906C4.89844 5.67969 4.71875 5.75 4.5 5.75Z" fill="#7289A0"/>
</svg>
