<svg width="24" height="24" viewBox="0 0 24 24" fill="none" xmlns="http://www.w3.org/2000/svg">
<path d="M23.5 12C23.5 18.3513 18.3513 23.5 12 23.5C5.64873 23.5 0.5 18.3513 0.5 12C0.5 5.64873 5.64873 0.5 12 0.5C18.3513 0.5 23.5 5.64873 23.5 12Z" stroke="#363636"/>
<path d="M17.8407 6.90474L15.6985 17.7094C15.6985 17.7094 15.3985 18.4594 14.5735 18.0985L9.62817 14.3063L7.82817 13.4391L4.80005 12.4219C4.80005 12.4219 4.33598 12.2579 4.28911 11.8969C4.24223 11.536 4.81411 11.3438 4.81411 11.3438L16.8516 6.62349C16.8516 6.6188 17.8407 6.18286 17.8407 6.90474Z" fill="#363636"/>
<path opacity="0.6" d="M9.24375 17.5876C9.24375 17.5876 9.09844 17.5735 8.92031 17.0063C8.74219 16.4392 7.82812 13.4392 7.82812 13.4392L15.0984 8.82197C15.0984 8.82197 15.5203 8.56885 15.5016 8.82197C15.5016 8.82197 15.5766 8.86885 15.3516 9.0751C15.1266 9.28604 9.64219 14.2173 9.64219 14.2173" fill="#E3E3E3"/>
<path d="M11.522 15.7594L9.56729 17.5453C9.56729 17.5453 9.4126 17.6625 9.24854 17.5875L9.62354 14.2734" fill="#9E9E9E"/>
</svg>
