<svg width="24" height="24" viewBox="0 0 24 24" fill="none" xmlns="http://www.w3.org/2000/svg">
<g clip-path="url(#clip0_207_2088)">
<circle cx="12" cy="12" r="11.5" stroke="#363636"/>
<path d="M18.4534 15.851C17.9725 16.1523 16.0159 16.2419 15.5424 15.8978C15.2826 15.7092 15.0451 15.473 14.8194 15.2484C14.6618 15.0912 14.4825 15.0149 14.347 14.8444C14.2366 14.7047 14.1607 14.54 14.044 14.4026C13.8474 14.1714 13.5444 13.9748 13.3046 14.2572C12.9439 14.6818 13.3615 15.5166 12.8804 15.834C12.719 15.9406 12.5562 15.9714 12.3547 15.9562L11.9082 15.9766C11.6457 15.9817 11.2303 15.984 10.932 15.9301C10.5989 15.8702 10.3243 15.6882 10.0236 15.5546C9.45225 15.3013 8.90773 14.9561 8.49358 14.4778C7.36648 13.1754 5.85246 11.3841 5.26436 9.74652C5.14312 9.41003 4.82395 8.74409 5.12675 8.45536C5.53861 8.15618 7.56081 8.07148 7.87598 8.53454C8.00426 8.72239 8.08496 8.99817 8.17555 9.21114C8.28822 9.47683 8.34951 9.72749 8.52575 9.96273C8.68181 10.1715 8.79715 10.3813 8.91801 10.6102C9.05371 10.867 9.1816 11.1132 9.34662 11.3498C9.45853 11.5106 9.75448 11.8302 9.94138 11.8542C10.3978 11.9126 10.3692 10.8034 10.3353 10.5324C10.303 10.2714 10.2944 9.99471 10.303 9.72996C10.3104 9.50424 10.3308 9.18621 10.197 9.00178C9.97906 8.70107 9.49374 8.92623 9.45567 8.52217C9.53599 8.4074 9.51886 8.30558 10.0544 8.12934C10.476 7.99059 10.7484 7.99497 11.0264 8.01724C11.5936 8.06273 12.1948 7.90914 12.742 8.09299C13.2646 8.26904 13.1839 9.01187 13.1664 9.45723C13.143 10.0653 13.1679 10.6586 13.1664 11.2754C13.1657 11.5565 13.1546 11.8296 13.4968 11.807C13.8181 11.7855 13.8506 11.5154 14.0038 11.2923C14.2172 10.9815 14.4127 10.6665 14.6298 10.3567C14.9223 9.93818 15.0105 9.46789 15.2859 9.03909C15.3845 8.8855 15.4691 8.55034 15.6208 8.4291C15.7358 8.33755 15.9539 8.37676 16.0928 8.37676H16.4232C16.6764 8.37981 16.9345 8.38342 17.1942 8.39256C17.5686 8.4055 17.9879 8.32423 18.3592 8.37657C19.961 8.60268 16.346 12.0291 16.534 12.6404C16.6642 13.0625 17.4887 13.5355 17.7863 13.8815C18.1832 14.3417 19.3995 15.2589 18.4534 15.851Z" fill="#363636"/>
</g>
<defs>
<clipPath id="clip0_207_2088">
<rect width="24" height="24" fill="white"/>
</clipPath>
</defs>
</svg>
